solid OpenSCAD_Model
  facet normal 1 -0 0
    outer loop
      vertex 60 0 40
      vertex 60 8 0
      vertex 60 8 40
    endloop
  endfacet
  facet normal 1 0 0
    outer loop
      vertex 60 8 0
      vertex 60 0 40
      vertex 60 0 0
    endloop
  endfacet
  facet normal 0 0 1
    outer loop
      vertex 8 60 40
      vertex 0 60 40
      vertex 8 8 40
    endloop
  endfacet
  facet normal -0 0 1
    outer loop
      vertex 8 8 40
      vertex 60 0 40
      vertex 60 8 40
    endloop
  endfacet
  facet normal 0 0 1
    outer loop
      vertex 8 8 40
      vertex 0 0 40
      vertex 60 0 40
    endloop
  endfacet
  facet normal 0 0 1
    outer loop
      vertex 0 0 40
      vertex 8 8 40
      vertex 0 60 40
    endloop
  endfacet
  facet normal 0 0 -1
    outer loop
      vertex 60 0 0
      vertex 8 8 0
      vertex 60 8 0
    endloop
  endfacet
  facet normal 0 0 -1
    outer loop
      vertex 0 0 0
      vertex 8 8 0
      vertex 60 0 0
    endloop
  endfacet
  facet normal 0 0 -1
    outer loop
      vertex 0 60 0
      vertex 8 8 0
      vertex 0 0 0
    endloop
  endfacet
  facet normal 0 0 -1
    outer loop
      vertex 8 8 0
      vertex 0 60 0
      vertex 8 60 0
    endloop
  endfacet
  facet normal -1 0 0
    outer loop
      vertex 0 0 0
      vertex 0 60 40
      vertex 0 60 0
    endloop
  endfacet
  facet normal -1 -0 0
    outer loop
      vertex 0 60 40
      vertex 0 0 0
      vertex 0 0 40
    endloop
  endfacet
  facet normal 0 1 -0
    outer loop
      vertex 60 8 0
      vertex 8 8 40
      vertex 60 8 40
    endloop
  endfacet
  facet normal 0 1 0
    outer loop
      vertex 8 8 40
      vertex 60 8 0
      vertex 8 8 0
    endloop
  endfacet
  facet normal 0 -1 0
    outer loop
      vertex 0 0 0
      vertex 60 0 40
      vertex 0 0 40
    endloop
  endfacet
  facet normal 0 -1 -0
    outer loop
      vertex 60 0 40
      vertex 0 0 0
      vertex 60 0 0
    endloop
  endfacet
  facet normal 1 -0 0
    outer loop
      vertex 8 8 40
      vertex 8 60 0
      vertex 8 60 40
    endloop
  endfacet
  facet normal 1 0 0
    outer loop
      vertex 8 60 0
      vertex 8 8 40
      vertex 8 8 0
    endloop
  endfacet
  facet normal 0 1 -0
    outer loop
      vertex 8 60 0
      vertex 0 60 40
      vertex 8 60 40
    endloop
  endfacet
  facet normal 0 1 0
    outer loop
      vertex 0 60 40
      vertex 8 60 0
      vertex 0 60 0
    endloop
  endfacet
endsolid OpenSCAD_Model
