solid OpenSCAD_Model
  facet normal -0 0 1
    outer loop
      vertex -61.8 -4.1 3
      vertex -42.2 -9.9 3
      vertex -42.2 -4.1 3
    endloop
  endfacet
  facet normal 0 0 1
    outer loop
      vertex -42.2 -9.9 3
      vertex -61.8 -4.1 3
      vertex -61.8 -9.9 3
    endloop
  endfacet
  facet normal 1 -0 0
    outer loop
      vertex -61.8 -9.9 15
      vertex -61.8 -4.1 3
      vertex -61.8 -4.1 15
    endloop
  endfacet
  facet normal 1 0 0
    outer loop
      vertex -61.8 -4.1 3
      vertex -61.8 -9.9 15
      vertex -61.8 -9.9 3
    endloop
  endfacet
  facet normal 0 -1 0
    outer loop
      vertex -61.8 -4.1 3
      vertex -42.2 -4.1 15
      vertex -61.8 -4.1 15
    endloop
  endfacet
  facet normal 0 -1 -0
    outer loop
      vertex -42.2 -4.1 15
      vertex -61.8 -4.1 3
      vertex -42.2 -4.1 3
    endloop
  endfacet
  facet normal -1 0 0
    outer loop
      vertex -42.2 -9.9 3
      vertex -42.2 -4.1 15
      vertex -42.2 -4.1 3
    endloop
  endfacet
  facet normal -1 -0 0
    outer loop
      vertex -42.2 -4.1 15
      vertex -42.2 -9.9 3
      vertex -42.2 -9.9 15
    endloop
  endfacet
  facet normal 0 1 -0
    outer loop
      vertex -42.2 -9.9 3
      vertex -61.8 -9.9 15
      vertex -42.2 -9.9 15
    endloop
  endfacet
  facet normal 0 1 0
    outer loop
      vertex -61.8 -9.9 15
      vertex -42.2 -9.9 3
      vertex -61.8 -9.9 3
    endloop
  endfacet
  facet normal -0 0 1
    outer loop
      vertex -35.8 -4.1 3
      vertex -16.2 -9.9 3
      vertex -16.2 -4.1 3
    endloop
  endfacet
  facet normal 0 0 1
    outer loop
      vertex -16.2 -9.9 3
      vertex -35.8 -4.1 3
      vertex -35.8 -9.9 3
    endloop
  endfacet
  facet normal 1 -0 0
    outer loop
      vertex -35.8 -9.9 15
      vertex -35.8 -4.1 3
      vertex -35.8 -4.1 15
    endloop
  endfacet
  facet normal 1 0 0
    outer loop
      vertex -35.8 -4.1 3
      vertex -35.8 -9.9 15
      vertex -35.8 -9.9 3
    endloop
  endfacet
  facet normal 0 -1 0
    outer loop
      vertex -35.8 -4.1 3
      vertex -16.2 -4.1 15
      vertex -35.8 -4.1 15
    endloop
  endfacet
  facet normal 0 -1 -0
    outer loop
      vertex -16.2 -4.1 15
      vertex -35.8 -4.1 3
      vertex -16.2 -4.1 3
    endloop
  endfacet
  facet normal -1 0 0
    outer loop
      vertex -16.2 -9.9 3
      vertex -16.2 -4.1 15
      vertex -16.2 -4.1 3
    endloop
  endfacet
  facet normal -1 -0 0
    outer loop
      vertex -16.2 -4.1 15
      vertex -16.2 -9.9 3
      vertex -16.2 -9.9 15
    endloop
  endfacet
  facet normal 0 1 -0
    outer loop
      vertex -16.2 -9.9 3
      vertex -35.8 -9.9 15
      vertex -16.2 -9.9 15
    endloop
  endfacet
  facet normal 0 1 0
    outer loop
      vertex -35.8 -9.9 15
      vertex -16.2 -9.9 3
      vertex -35.8 -9.9 3
    endloop
  endfacet
  facet normal -0 0 1
    outer loop
      vertex -9.8 -4.1 3
      vertex 9.8 -9.9 3
      vertex 9.8 -4.1 3
    endloop
  endfacet
  facet normal 0 0 1
    outer loop
      vertex 9.8 -9.9 3
      vertex -9.8 -4.1 3
      vertex -9.8 -9.9 3
    endloop
  endfacet
  facet normal 1 -0 0
    outer loop
      vertex -9.8 -9.9 15
      vertex -9.8 -4.1 3
      vertex -9.8 -4.1 15
    endloop
  endfacet
  facet normal 1 0 0
    outer loop
      vertex -9.8 -4.1 3
      vertex -9.8 -9.9 15
      vertex -9.8 -9.9 3
    endloop
  endfacet
  facet normal 0 -1 0
    outer loop
      vertex -9.8 -4.1 3
      vertex 9.8 -4.1 15
      vertex -9.8 -4.1 15
    endloop
  endfacet
  facet normal 0 -1 -0
    outer loop
      vertex 9.8 -4.1 15
      vertex -9.8 -4.1 3
      vertex 9.8 -4.1 3
    endloop
  endfacet
  facet normal -1 0 0
    outer loop
      vertex 9.8 -9.9 3
      vertex 9.8 -4.1 15
      vertex 9.8 -4.1 3
    endloop
  endfacet
  facet normal -1 -0 0
    outer loop
      vertex 9.8 -4.1 15
      vertex 9.8 -9.9 3
      vertex 9.8 -9.9 15
    endloop
  endfacet
  facet normal 0 1 -0
    outer loop
      vertex 9.8 -9.9 3
      vertex -9.8 -9.9 15
      vertex 9.8 -9.9 15
    endloop
  endfacet
  facet normal 0 1 0
    outer loop
      vertex -9.8 -9.9 15
      vertex 9.8 -9.9 3
      vertex -9.8 -9.9 3
    endloop
  endfacet
  facet normal -0 0 1
    outer loop
      vertex 16.2 -4.1 3
      vertex 35.8 -9.9 3
      vertex 35.8 -4.1 3
    endloop
  endfacet
  facet normal 0 0 1
    outer loop
      vertex 35.8 -9.9 3
      vertex 16.2 -4.1 3
      vertex 16.2 -9.9 3
    endloop
  endfacet
  facet normal 1 -0 0
    outer loop
      vertex 16.2 -9.9 15
      vertex 16.2 -4.1 3
      vertex 16.2 -4.1 15
    endloop
  endfacet
  facet normal 1 0 0
    outer loop
      vertex 16.2 -4.1 3
      vertex 16.2 -9.9 15
      vertex 16.2 -9.9 3
    endloop
  endfacet
  facet normal 0 -1 0
    outer loop
      vertex 16.2 -4.1 3
      vertex 35.8 -4.1 15
      vertex 16.2 -4.1 15
    endloop
  endfacet
  facet normal 0 -1 -0
    outer loop
      vertex 35.8 -4.1 15
      vertex 16.2 -4.1 3
      vertex 35.8 -4.1 3
    endloop
  endfacet
  facet normal -1 0 0
    outer loop
      vertex 35.8 -9.9 3
      vertex 35.8 -4.1 15
      vertex 35.8 -4.1 3
    endloop
  endfacet
  facet normal -1 -0 0
    outer loop
      vertex 35.8 -4.1 15
      vertex 35.8 -9.9 3
      vertex 35.8 -9.9 15
    endloop
  endfacet
  facet normal 0 1 -0
    outer loop
      vertex 35.8 -9.9 3
      vertex 16.2 -9.9 15
      vertex 35.8 -9.9 15
    endloop
  endfacet
  facet normal 0 1 0
    outer loop
      vertex 16.2 -9.9 15
      vertex 35.8 -9.9 3
      vertex 16.2 -9.9 3
    endloop
  endfacet
  facet normal -0 0 1
    outer loop
      vertex 42.2 -4.1 3
      vertex 61.8 -9.9 3
      vertex 61.8 -4.1 3
    endloop
  endfacet
  facet normal 0 0 1
    outer loop
      vertex 61.8 -9.9 3
      vertex 42.2 -4.1 3
      vertex 42.2 -9.9 3
    endloop
  endfacet
  facet normal 1 -0 0
    outer loop
      vertex 42.2 -9.9 15
      vertex 42.2 -4.1 3
      vertex 42.2 -4.1 15
    endloop
  endfacet
  facet normal 1 0 0
    outer loop
      vertex 42.2 -4.1 3
      vertex 42.2 -9.9 15
      vertex 42.2 -9.9 3
    endloop
  endfacet
  facet normal 0 -1 0
    outer loop
      vertex 42.2 -4.1 3
      vertex 61.8 -4.1 15
      vertex 42.2 -4.1 15
    endloop
  endfacet
  facet normal 0 -1 -0
    outer loop
      vertex 61.8 -4.1 15
      vertex 42.2 -4.1 3
      vertex 61.8 -4.1 3
    endloop
  endfacet
  facet normal -1 0 0
    outer loop
      vertex 61.8 -9.9 3
      vertex 61.8 -4.1 15
      vertex 61.8 -4.1 3
    endloop
  endfacet
  facet normal -1 -0 0
    outer loop
      vertex 61.8 -4.1 15
      vertex 61.8 -9.9 3
      vertex 61.8 -9.9 15
    endloop
  endfacet
  facet normal 0 1 -0
    outer loop
      vertex 61.8 -9.9 3
      vertex 42.2 -9.9 15
      vertex 61.8 -9.9 15
    endloop
  endfacet
  facet normal 0 1 0
    outer loop
      vertex 42.2 -9.9 15
      vertex 61.8 -9.9 3
      vertex 42.2 -9.9 3
    endloop
  endfacet
  facet normal -0 0 1
    outer loop
      vertex -61.8 9.9 3
      vertex -42.2 4.1 3
      vertex -42.2 9.9 3
    endloop
  endfacet
  facet normal 0 0 1
    outer loop
      vertex -42.2 4.1 3
      vertex -61.8 9.9 3
      vertex -61.8 4.1 3
    endloop
  endfacet
  facet normal 1 -0 0
    outer loop
      vertex -61.8 4.1 15
      vertex -61.8 9.9 3
      vertex -61.8 9.9 15
    endloop
  endfacet
  facet normal 1 0 0
    outer loop
      vertex -61.8 9.9 3
      vertex -61.8 4.1 15
      vertex -61.8 4.1 3
    endloop
  endfacet
  facet normal 0 -1 0
    outer loop
      vertex -61.8 9.9 3
      vertex -42.2 9.9 15
      vertex -61.8 9.9 15
    endloop
  endfacet
  facet normal 0 -1 -0
    outer loop
      vertex -42.2 9.9 15
      vertex -61.8 9.9 3
      vertex -42.2 9.9 3
    endloop
  endfacet
  facet normal -1 0 0
    outer loop
      vertex -42.2 4.1 3
      vertex -42.2 9.9 15
      vertex -42.2 9.9 3
    endloop
  endfacet
  facet normal -1 -0 0
    outer loop
      vertex -42.2 9.9 15
      vertex -42.2 4.1 3
      vertex -42.2 4.1 15
    endloop
  endfacet
  facet normal 0 1 -0
    outer loop
      vertex -42.2 4.1 3
      vertex -61.8 4.1 15
      vertex -42.2 4.1 15
    endloop
  endfacet
  facet normal 0 1 0
    outer loop
      vertex -61.8 4.1 15
      vertex -42.2 4.1 3
      vertex -61.8 4.1 3
    endloop
  endfacet
  facet normal -0 0 1
    outer loop
      vertex -35.8 9.9 3
      vertex -16.2 4.1 3
      vertex -16.2 9.9 3
    endloop
  endfacet
  facet normal 0 0 1
    outer loop
      vertex -16.2 4.1 3
      vertex -35.8 9.9 3
      vertex -35.8 4.1 3
    endloop
  endfacet
  facet normal 1 -0 0
    outer loop
      vertex -35.8 4.1 15
      vertex -35.8 9.9 3
      vertex -35.8 9.9 15
    endloop
  endfacet
  facet normal 1 0 0
    outer loop
      vertex -35.8 9.9 3
      vertex -35.8 4.1 15
      vertex -35.8 4.1 3
    endloop
  endfacet
  facet normal 0 -1 0
    outer loop
      vertex -35.8 9.9 3
      vertex -16.2 9.9 15
      vertex -35.8 9.9 15
    endloop
  endfacet
  facet normal 0 -1 -0
    outer loop
      vertex -16.2 9.9 15
      vertex -35.8 9.9 3
      vertex -16.2 9.9 3
    endloop
  endfacet
  facet normal -1 0 0
    outer loop
      vertex -16.2 4.1 3
      vertex -16.2 9.9 15
      vertex -16.2 9.9 3
    endloop
  endfacet
  facet normal -1 -0 0
    outer loop
      vertex -16.2 9.9 15
      vertex -16.2 4.1 3
      vertex -16.2 4.1 15
    endloop
  endfacet
  facet normal 0 1 -0
    outer loop
      vertex -16.2 4.1 3
      vertex -35.8 4.1 15
      vertex -16.2 4.1 15
    endloop
  endfacet
  facet normal 0 1 0
    outer loop
      vertex -35.8 4.1 15
      vertex -16.2 4.1 3
      vertex -35.8 4.1 3
    endloop
  endfacet
  facet normal -0 0 1
    outer loop
      vertex -9.8 9.9 3
      vertex 9.8 4.1 3
      vertex 9.8 9.9 3
    endloop
  endfacet
  facet normal 0 0 1
    outer loop
      vertex 9.8 4.1 3
      vertex -9.8 9.9 3
      vertex -9.8 4.1 3
    endloop
  endfacet
  facet normal 1 -0 0
    outer loop
      vertex -9.8 4.1 15
      vertex -9.8 9.9 3
      vertex -9.8 9.9 15
    endloop
  endfacet
  facet normal 1 0 0
    outer loop
      vertex -9.8 9.9 3
      vertex -9.8 4.1 15
      vertex -9.8 4.1 3
    endloop
  endfacet
  facet normal 0 -1 0
    outer loop
      vertex -9.8 9.9 3
      vertex 9.8 9.9 15
      vertex -9.8 9.9 15
    endloop
  endfacet
  facet normal 0 -1 -0
    outer loop
      vertex 9.8 9.9 15
      vertex -9.8 9.9 3
      vertex 9.8 9.9 3
    endloop
  endfacet
  facet normal -1 0 0
    outer loop
      vertex 9.8 4.1 3
      vertex 9.8 9.9 15
      vertex 9.8 9.9 3
    endloop
  endfacet
  facet normal -1 -0 0
    outer loop
      vertex 9.8 9.9 15
      vertex 9.8 4.1 3
      vertex 9.8 4.1 15
    endloop
  endfacet
  facet normal 0 1 -0
    outer loop
      vertex 9.8 4.1 3
      vertex -9.8 4.1 15
      vertex 9.8 4.1 15
    endloop
  endfacet
  facet normal 0 1 0
    outer loop
      vertex -9.8 4.1 15
      vertex 9.8 4.1 3
      vertex -9.8 4.1 3
    endloop
  endfacet
  facet normal -0 0 1
    outer loop
      vertex 16.2 9.9 3
      vertex 35.8 4.1 3
      vertex 35.8 9.9 3
    endloop
  endfacet
  facet normal 0 0 1
    outer loop
      vertex 35.8 4.1 3
      vertex 16.2 9.9 3
      vertex 16.2 4.1 3
    endloop
  endfacet
  facet normal 1 -0 0
    outer loop
      vertex 16.2 4.1 15
      vertex 16.2 9.9 3
      vertex 16.2 9.9 15
    endloop
  endfacet
  facet normal 1 0 0
    outer loop
      vertex 16.2 9.9 3
      vertex 16.2 4.1 15
      vertex 16.2 4.1 3
    endloop
  endfacet
  facet normal 0 -1 0
    outer loop
      vertex 16.2 9.9 3
      vertex 35.8 9.9 15
      vertex 16.2 9.9 15
    endloop
  endfacet
  facet normal 0 -1 -0
    outer loop
      vertex 35.8 9.9 15
      vertex 16.2 9.9 3
      vertex 35.8 9.9 3
    endloop
  endfacet
  facet normal -1 0 0
    outer loop
      vertex 35.8 4.1 3
      vertex 35.8 9.9 15
      vertex 35.8 9.9 3
    endloop
  endfacet
  facet normal -1 -0 0
    outer loop
      vertex 35.8 9.9 15
      vertex 35.8 4.1 3
      vertex 35.8 4.1 15
    endloop
  endfacet
  facet normal 0 1 -0
    outer loop
      vertex 35.8 4.1 3
      vertex 16.2 4.1 15
      vertex 35.8 4.1 15
    endloop
  endfacet
  facet normal 0 1 0
    outer loop
      vertex 16.2 4.1 15
      vertex 35.8 4.1 3
      vertex 16.2 4.1 3
    endloop
  endfacet
  facet normal -0 0 1
    outer loop
      vertex 42.2 9.9 3
      vertex 61.8 4.1 3
      vertex 61.8 9.9 3
    endloop
  endfacet
  facet normal 0 0 1
    outer loop
      vertex 61.8 4.1 3
      vertex 42.2 9.9 3
      vertex 42.2 4.1 3
    endloop
  endfacet
  facet normal 1 -0 0
    outer loop
      vertex 42.2 4.1 15
      vertex 42.2 9.9 3
      vertex 42.2 9.9 15
    endloop
  endfacet
  facet normal 1 0 0
    outer loop
      vertex 42.2 9.9 3
      vertex 42.2 4.1 15
      vertex 42.2 4.1 3
    endloop
  endfacet
  facet normal 0 -1 0
    outer loop
      vertex 42.2 9.9 3
      vertex 61.8 9.9 15
      vertex 42.2 9.9 15
    endloop
  endfacet
  facet normal 0 -1 -0
    outer loop
      vertex 61.8 9.9 15
      vertex 42.2 9.9 3
      vertex 61.8 9.9 3
    endloop
  endfacet
  facet normal -1 0 0
    outer loop
      vertex 61.8 4.1 3
      vertex 61.8 9.9 15
      vertex 61.8 9.9 3
    endloop
  endfacet
  facet normal -1 -0 0
    outer loop
      vertex 61.8 9.9 15
      vertex 61.8 4.1 3
      vertex 61.8 4.1 15
    endloop
  endfacet
  facet normal 0 1 -0
    outer loop
      vertex 61.8 4.1 3
      vertex 42.2 4.1 15
      vertex 61.8 4.1 15
    endloop
  endfacet
  facet normal 0 1 0
    outer loop
      vertex 42.2 4.1 15
      vertex 61.8 4.1 3
      vertex 42.2 4.1 3
    endloop
  endfacet
  facet normal 1 -0 0
    outer loop
      vertex 69 -19 15
      vertex 69 19 0
      vertex 69 19 15
    endloop
  endfacet
  facet normal 1 0 0
    outer loop
      vertex 69 19 0
      vertex 69 -19 15
      vertex 69 -19 0
    endloop
  endfacet
  facet normal -0 0 1
    outer loop
      vertex -61.8 4.1 15
      vertex -42.2 -4.1 15
      vertex -42.2 4.1 15
    endloop
  endfacet
  facet normal 0 0 1
    outer loop
      vertex -42.2 -4.1 15
      vertex -61.8 4.1 15
      vertex -61.8 -4.1 15
    endloop
  endfacet
  facet normal -0 0 1
    outer loop
      vertex -35.8 4.1 15
      vertex -16.2 -4.1 15
      vertex -16.2 4.1 15
    endloop
  endfacet
  facet normal 0 0 1
    outer loop
      vertex -16.2 -4.1 15
      vertex -35.8 4.1 15
      vertex -35.8 -4.1 15
    endloop
  endfacet
  facet normal -0 0 1
    outer loop
      vertex -9.8 4.1 15
      vertex 9.8 -4.1 15
      vertex 9.8 4.1 15
    endloop
  endfacet
  facet normal 0 0 1
    outer loop
      vertex 9.8 -4.1 15
      vertex -9.8 4.1 15
      vertex -9.8 -4.1 15
    endloop
  endfacet
  facet normal -0 0 1
    outer loop
      vertex 16.2 4.1 15
      vertex 35.8 -4.1 15
      vertex 35.8 4.1 15
    endloop
  endfacet
  facet normal 0 0 1
    outer loop
      vertex 35.8 -4.1 15
      vertex 16.2 4.1 15
      vertex 16.2 -4.1 15
    endloop
  endfacet
  facet normal -0 0 1
    outer loop
      vertex 42.2 4.1 15
      vertex 61.8 -4.1 15
      vertex 61.8 4.1 15
    endloop
  endfacet
  facet normal 0 0 1
    outer loop
      vertex 61.8 -4.1 15
      vertex 42.2 4.1 15
      vertex 42.2 -4.1 15
    endloop
  endfacet
  facet normal 0 0 1
    outer loop
      vertex 61.8 4.1 15
      vertex 69 19 15
      vertex 61.8 9.9 15
    endloop
  endfacet
  facet normal 0 0 1
    outer loop
      vertex 69 19 15
      vertex 42.2 9.9 15
      vertex 61.8 9.9 15
    endloop
  endfacet
  facet normal 0 0 1
    outer loop
      vertex 35.8 4.1 15
      vertex 42.2 4.1 15
      vertex 42.2 9.9 15
    endloop
  endfacet
  facet normal 0 0 1
    outer loop
      vertex 42.2 4.1 15
      vertex 35.8 4.1 15
      vertex 42.2 -4.1 15
    endloop
  endfacet
  facet normal 0 0 1
    outer loop
      vertex 35.8 4.1 15
      vertex 42.2 9.9 15
      vertex 35.8 9.9 15
    endloop
  endfacet
  facet normal 0 0 1
    outer loop
      vertex 69 19 15
      vertex 35.8 9.9 15
      vertex 42.2 9.9 15
    endloop
  endfacet
  facet normal 0 0 1
    outer loop
      vertex 69 19 15
      vertex 16.2 9.9 15
      vertex 35.8 9.9 15
    endloop
  endfacet
  facet normal 0 0 1
    outer loop
      vertex 9.8 4.1 15
      vertex 16.2 4.1 15
      vertex 16.2 9.9 15
    endloop
  endfacet
  facet normal 0 0 1
    outer loop
      vertex 16.2 4.1 15
      vertex 9.8 4.1 15
      vertex 16.2 -4.1 15
    endloop
  endfacet
  facet normal 0 0 1
    outer loop
      vertex 9.8 4.1 15
      vertex 16.2 9.9 15
      vertex 9.8 9.9 15
    endloop
  endfacet
  facet normal 0 0 1
    outer loop
      vertex 69 19 15
      vertex 9.8 9.9 15
      vertex 16.2 9.9 15
    endloop
  endfacet
  facet normal 0 0 1
    outer loop
      vertex 69 19 15
      vertex -9.8 9.9 15
      vertex 9.8 9.9 15
    endloop
  endfacet
  facet normal 0 0 1
    outer loop
      vertex -16.2 4.1 15
      vertex -9.8 4.1 15
      vertex -9.8 9.9 15
    endloop
  endfacet
  facet normal 0 0 1
    outer loop
      vertex -9.8 4.1 15
      vertex -16.2 4.1 15
      vertex -9.8 -4.1 15
    endloop
  endfacet
  facet normal 0 0 1
    outer loop
      vertex -16.2 4.1 15
      vertex -9.8 9.9 15
      vertex -16.2 9.9 15
    endloop
  endfacet
  facet normal -0 0 1
    outer loop
      vertex -69 19 15
      vertex -9.8 9.9 15
      vertex 69 19 15
    endloop
  endfacet
  facet normal 0 0 1
    outer loop
      vertex -9.8 9.9 15
      vertex -69 19 15
      vertex -16.2 9.9 15
    endloop
  endfacet
  facet normal 0 0 1
    outer loop
      vertex -42.2 4.1 15
      vertex -35.8 4.1 15
      vertex -35.8 9.9 15
    endloop
  endfacet
  facet normal 0 0 1
    outer loop
      vertex -35.8 4.1 15
      vertex -42.2 4.1 15
      vertex -35.8 -4.1 15
    endloop
  endfacet
  facet normal 0 0 1
    outer loop
      vertex -42.2 4.1 15
      vertex -35.8 9.9 15
      vertex -42.2 9.9 15
    endloop
  endfacet
  facet normal 0 0 1
    outer loop
      vertex -16.2 9.9 15
      vertex -69 19 15
      vertex -35.8 9.9 15
    endloop
  endfacet
  facet normal 0 0 1
    outer loop
      vertex -35.8 9.9 15
      vertex -69 19 15
      vertex -42.2 9.9 15
    endloop
  endfacet
  facet normal 0 0 1
    outer loop
      vertex -69 19 15
      vertex -61.8 4.1 15
      vertex -61.8 9.9 15
    endloop
  endfacet
  facet normal 0 0 1
    outer loop
      vertex -61.8 4.1 15
      vertex -69 19 15
      vertex -61.8 -4.1 15
    endloop
  endfacet
  facet normal 0 0 1
    outer loop
      vertex -69 -19 15
      vertex -61.8 -4.1 15
      vertex -69 19 15
    endloop
  endfacet
  facet normal 0 0 1
    outer loop
      vertex -42.2 9.9 15
      vertex -69 19 15
      vertex -61.8 9.9 15
    endloop
  endfacet
  facet normal 0 0 1
    outer loop
      vertex 69 19 15
      vertex 61.8 4.1 15
      vertex 69 -19 15
    endloop
  endfacet
  facet normal -0 0 1
    outer loop
      vertex 61.8 -4.1 15
      vertex 69 -19 15
      vertex 61.8 4.1 15
    endloop
  endfacet
  facet normal -0 0 1
    outer loop
      vertex 61.8 -9.9 15
      vertex 69 -19 15
      vertex 61.8 -4.1 15
    endloop
  endfacet
  facet normal -0 0 1
    outer loop
      vertex 42.2 -9.9 15
      vertex 69 -19 15
      vertex 61.8 -9.9 15
    endloop
  endfacet
  facet normal 0 0 1
    outer loop
      vertex 35.8 -4.1 15
      vertex 42.2 -4.1 15
      vertex 35.8 4.1 15
    endloop
  endfacet
  facet normal 0 0 1
    outer loop
      vertex 42.2 -4.1 15
      vertex 35.8 -4.1 15
      vertex 42.2 -9.9 15
    endloop
  endfacet
  facet normal 0 0 1
    outer loop
      vertex 35.8 -9.9 15
      vertex 42.2 -9.9 15
      vertex 35.8 -4.1 15
    endloop
  endfacet
  facet normal -0 0 1
    outer loop
      vertex 35.8 -9.9 15
      vertex 69 -19 15
      vertex 42.2 -9.9 15
    endloop
  endfacet
  facet normal -0 0 1
    outer loop
      vertex 16.2 -9.9 15
      vertex 69 -19 15
      vertex 35.8 -9.9 15
    endloop
  endfacet
  facet normal 0 0 1
    outer loop
      vertex 9.8 -4.1 15
      vertex 16.2 -4.1 15
      vertex 9.8 4.1 15
    endloop
  endfacet
  facet normal 0 0 1
    outer loop
      vertex 16.2 -4.1 15
      vertex 9.8 -4.1 15
      vertex 16.2 -9.9 15
    endloop
  endfacet
  facet normal 0 0 1
    outer loop
      vertex 9.8 -9.9 15
      vertex 16.2 -9.9 15
      vertex 9.8 -4.1 15
    endloop
  endfacet
  facet normal -0 0 1
    outer loop
      vertex 9.8 -9.9 15
      vertex 69 -19 15
      vertex 16.2 -9.9 15
    endloop
  endfacet
  facet normal -0 0 1
    outer loop
      vertex -9.8 -9.9 15
      vertex 69 -19 15
      vertex 9.8 -9.9 15
    endloop
  endfacet
  facet normal 0 0 1
    outer loop
      vertex -16.2 -4.1 15
      vertex -9.8 -4.1 15
      vertex -16.2 4.1 15
    endloop
  endfacet
  facet normal 0 0 1
    outer loop
      vertex -9.8 -4.1 15
      vertex -16.2 -4.1 15
      vertex -9.8 -9.9 15
    endloop
  endfacet
  facet normal 0 0 1
    outer loop
      vertex -16.2 -9.9 15
      vertex -9.8 -9.9 15
      vertex -16.2 -4.1 15
    endloop
  endfacet
  facet normal 0 0 1
    outer loop
      vertex -69 -19 15
      vertex -9.8 -9.9 15
      vertex -16.2 -9.9 15
    endloop
  endfacet
  facet normal 0 0 1
    outer loop
      vertex -69 -19 15
      vertex -16.2 -9.9 15
      vertex -35.8 -9.9 15
    endloop
  endfacet
  facet normal 0 0 1
    outer loop
      vertex -42.2 -4.1 15
      vertex -35.8 -4.1 15
      vertex -42.2 4.1 15
    endloop
  endfacet
  facet normal 0 0 1
    outer loop
      vertex -35.8 -4.1 15
      vertex -42.2 -4.1 15
      vertex -35.8 -9.9 15
    endloop
  endfacet
  facet normal 0 0 1
    outer loop
      vertex -42.2 -9.9 15
      vertex -35.8 -9.9 15
      vertex -42.2 -4.1 15
    endloop
  endfacet
  facet normal 0 0 1
    outer loop
      vertex -69 -19 15
      vertex -35.8 -9.9 15
      vertex -42.2 -9.9 15
    endloop
  endfacet
  facet normal 0 0 1
    outer loop
      vertex -69 -19 15
      vertex -42.2 -9.9 15
      vertex -61.8 -9.9 15
    endloop
  endfacet
  facet normal 0 0 1
    outer loop
      vertex -9.8 -9.9 15
      vertex -69 -19 15
      vertex 69 -19 15
    endloop
  endfacet
  facet normal 0 0 1
    outer loop
      vertex -61.8 -4.1 15
      vertex -69 -19 15
      vertex -61.8 -9.9 15
    endloop
  endfacet
  facet normal 0 0 -1
    outer loop
      vertex -69 -19 0
      vertex 69 19 0
      vertex 69 -19 0
    endloop
  endfacet
  facet normal -0 0 -1
    outer loop
      vertex 69 19 0
      vertex -69 -19 0
      vertex -69 19 0
    endloop
  endfacet
  facet normal -1 0 0
    outer loop
      vertex -69 -19 0
      vertex -69 19 15
      vertex -69 19 0
    endloop
  endfacet
  facet normal -1 -0 0
    outer loop
      vertex -69 19 15
      vertex -69 -19 0
      vertex -69 -19 15
    endloop
  endfacet
  facet normal 0 1 -0
    outer loop
      vertex 69 19 0
      vertex -69 19 15
      vertex 69 19 15
    endloop
  endfacet
  facet normal 0 1 0
    outer loop
      vertex -69 19 15
      vertex 69 19 0
      vertex -69 19 0
    endloop
  endfacet
  facet normal 0 -1 0
    outer loop
      vertex -69 -19 0
      vertex 69 -19 15
      vertex -69 -19 15
    endloop
  endfacet
  facet normal 0 -1 -0
    outer loop
      vertex 69 -19 15
      vertex -69 -19 0
      vertex 69 -19 0
    endloop
  endfacet
endsolid OpenSCAD_Model
