solid OpenSCAD_Model
  facet normal -0.671564 -0.740946 0
    outer loop
      vertex -5.65685 -5.65685 0
      vertex -5.07515 -6.18408 3
      vertex -5.65685 -5.65685 3
    endloop
  endfacet
  facet normal -0.671564 -0.740946 -0
    outer loop
      vertex -5.07515 -6.18408 3
      vertex -5.65685 -5.65685 0
      vertex -5.07515 -6.18408 0
    endloop
  endfacet
  facet normal -0.941547 0.336883 0
    outer loop
      vertex -7.65552 2.32228 0
      vertex -7.39104 3.06147 3
      vertex -7.39104 3.06147 0
    endloop
  endfacet
  facet normal -0.941547 0.336883 0
    outer loop
      vertex -7.39104 3.06147 3
      vertex -7.65552 2.32228 0
      vertex -7.65552 2.32228 3
    endloop
  endfacet
  facet normal 0.989176 0.146736 0
    outer loop
      vertex 7.96148 0.784137 3
      vertex 7.84628 1.56072 0
      vertex 7.84628 1.56072 3
    endloop
  endfacet
  facet normal 0.989176 0.146736 0
    outer loop
      vertex 7.84628 1.56072 0
      vertex 7.96148 0.784137 3
      vertex 7.96148 0.784137 0
    endloop
  endfacet
  facet normal 0.998796 0.0490649 0
    outer loop
      vertex 8 0 3
      vertex 7.96148 0.784137 0
      vertex 7.96148 0.784137 3
    endloop
  endfacet
  facet normal 0.998796 0.0490649 0
    outer loop
      vertex 7.96148 0.784137 0
      vertex 8 0 3
      vertex 8 0 0
    endloop
  endfacet
  facet normal -0.514099 -0.857731 0
    outer loop
      vertex -4.44456 -6.65176 0
      vertex -3.77117 -7.05537 3
      vertex -4.44456 -6.65176 3
    endloop
  endfacet
  facet normal -0.514099 -0.857731 -0
    outer loop
      vertex -3.77117 -7.05537 3
      vertex -4.44456 -6.65176 0
      vertex -3.77117 -7.05537 0
    endloop
  endfacet
  facet normal 0.671564 0.740946 -0
    outer loop
      vertex 5.65685 5.65685 0
      vertex 5.07515 6.18408 3
      vertex 5.65685 5.65685 3
    endloop
  endfacet
  facet normal 0.671564 0.740946 0
    outer loop
      vertex 5.07515 6.18408 3
      vertex 5.65685 5.65685 0
      vertex 5.07515 6.18408 0
    endloop
  endfacet
  facet normal -0.146736 -0.989176 0
    outer loop
      vertex -1.56072 -7.84628 0
      vertex -0.784137 -7.96148 3
      vertex -1.56072 -7.84628 3
    endloop
  endfacet
  facet normal -0.146736 -0.989176 -0
    outer loop
      vertex -0.784137 -7.96148 3
      vertex -1.56072 -7.84628 0
      vertex -0.784137 -7.96148 0
    endloop
  endfacet
  facet normal 0.740946 0.671564 0
    outer loop
      vertex 6.18408 5.07515 3
      vertex 5.65685 5.65685 0
      vertex 5.65685 5.65685 3
    endloop
  endfacet
  facet normal 0.740946 0.671564 0
    outer loop
      vertex 5.65685 5.65685 0
      vertex 6.18408 5.07515 3
      vertex 6.18408 5.07515 0
    endloop
  endfacet
  facet normal 0.427562 0.903986 -0
    outer loop
      vertex 3.77117 7.05537 0
      vertex 3.06147 7.39104 3
      vertex 3.77117 7.05537 3
    endloop
  endfacet
  facet normal 0.427562 0.903986 0
    outer loop
      vertex 3.06147 7.39104 3
      vertex 3.77117 7.05537 0
      vertex 3.06147 7.39104 0
    endloop
  endfacet
  facet normal 0.0490649 -0.998796 0
    outer loop
      vertex 0 -8 0
      vertex 0.784137 -7.96148 3
      vertex 0 -8 3
    endloop
  endfacet
  facet normal 0.0490649 -0.998796 0
    outer loop
      vertex 0.784137 -7.96148 3
      vertex 0 -8 0
      vertex 0.784137 -7.96148 0
    endloop
  endfacet
  facet normal -0.740946 0.671564 0
    outer loop
      vertex -6.18408 5.07515 0
      vertex -5.65685 5.65685 3
      vertex -5.65685 5.65685 0
    endloop
  endfacet
  facet normal -0.740946 0.671564 0
    outer loop
      vertex -5.65685 5.65685 3
      vertex -6.18408 5.07515 0
      vertex -6.18408 5.07515 3
    endloop
  endfacet
  facet normal 0.989176 -0.146736 0
    outer loop
      vertex 7.84628 -1.56072 3
      vertex 7.96148 -0.784137 0
      vertex 7.96148 -0.784137 3
    endloop
  endfacet
  facet normal 0.989176 -0.146736 0
    outer loop
      vertex 7.96148 -0.784137 0
      vertex 7.84628 -1.56072 3
      vertex 7.84628 -1.56072 0
    endloop
  endfacet
  facet normal 0.903986 0.427562 0
    outer loop
      vertex 7.39104 3.06147 3
      vertex 7.05537 3.77117 0
      vertex 7.05537 3.77117 3
    endloop
  endfacet
  facet normal 0.903986 0.427562 0
    outer loop
      vertex 7.05537 3.77117 0
      vertex 7.39104 3.06147 3
      vertex 7.39104 3.06147 0
    endloop
  endfacet
  facet normal -0.242979 0.970032 0
    outer loop
      vertex -1.56072 7.84628 0
      vertex -2.32228 7.65552 3
      vertex -1.56072 7.84628 3
    endloop
  endfacet
  facet normal -0.242979 0.970032 0
    outer loop
      vertex -2.32228 7.65552 3
      vertex -1.56072 7.84628 0
      vertex -2.32228 7.65552 0
    endloop
  endfacet
  facet normal -0.803206 0.595701 0
    outer loop
      vertex -6.65176 4.44456 0
      vertex -6.18408 5.07515 3
      vertex -6.18408 5.07515 0
    endloop
  endfacet
  facet normal -0.803206 0.595701 0
    outer loop
      vertex -6.18408 5.07515 3
      vertex -6.65176 4.44456 0
      vertex -6.65176 4.44456 3
    endloop
  endfacet
  facet normal 0.242979 0.970032 -0
    outer loop
      vertex 2.32228 7.65552 0
      vertex 1.56072 7.84628 3
      vertex 2.32228 7.65552 3
    endloop
  endfacet
  facet normal 0.242979 0.970032 0
    outer loop
      vertex 1.56072 7.84628 3
      vertex 2.32228 7.65552 0
      vertex 1.56072 7.84628 0
    endloop
  endfacet
  facet normal 0.336883 0.941547 -0
    outer loop
      vertex 3.06147 7.39104 0
      vertex 2.32228 7.65552 3
      vertex 3.06147 7.39104 3
    endloop
  endfacet
  facet normal 0.336883 0.941547 0
    outer loop
      vertex 2.32228 7.65552 3
      vertex 3.06147 7.39104 0
      vertex 2.32228 7.65552 0
    endloop
  endfacet
  facet normal 0.941547 0.336883 0
    outer loop
      vertex 7.65552 2.32228 3
      vertex 7.39104 3.06147 0
      vertex 7.39104 3.06147 3
    endloop
  endfacet
  facet normal 0.941547 0.336883 0
    outer loop
      vertex 7.39104 3.06147 0
      vertex 7.65552 2.32228 3
      vertex 7.65552 2.32228 0
    endloop
  endfacet
  facet normal 0.595701 0.803206 -0
    outer loop
      vertex 5.07515 6.18408 0
      vertex 4.44456 6.65176 3
      vertex 5.07515 6.18408 3
    endloop
  endfacet
  facet normal 0.595701 0.803206 0
    outer loop
      vertex 4.44456 6.65176 3
      vertex 5.07515 6.18408 0
      vertex 4.44456 6.65176 0
    endloop
  endfacet
  facet normal -0.857731 -0.514099 0
    outer loop
      vertex -6.65176 -4.44456 0
      vertex -7.05537 -3.77117 3
      vertex -7.05537 -3.77117 0
    endloop
  endfacet
  facet normal -0.857731 -0.514099 0
    outer loop
      vertex -7.05537 -3.77117 3
      vertex -6.65176 -4.44456 0
      vertex -6.65176 -4.44456 3
    endloop
  endfacet
  facet normal 0.514099 0.857731 -0
    outer loop
      vertex 4.44456 6.65176 0
      vertex 3.77117 7.05537 3
      vertex 4.44456 6.65176 3
    endloop
  endfacet
  facet normal 0.514099 0.857731 0
    outer loop
      vertex 3.77117 7.05537 3
      vertex 4.44456 6.65176 0
      vertex 3.77117 7.05537 0
    endloop
  endfacet
  facet normal 0.941547 -0.336883 0
    outer loop
      vertex 7.39104 -3.06147 3
      vertex 7.65552 -2.32228 0
      vertex 7.65552 -2.32228 3
    endloop
  endfacet
  facet normal 0.941547 -0.336883 0
    outer loop
      vertex 7.65552 -2.32228 0
      vertex 7.39104 -3.06147 3
      vertex 7.39104 -3.06147 0
    endloop
  endfacet
  facet normal -0.857731 0.514099 0
    outer loop
      vertex -7.05537 3.77117 0
      vertex -6.65176 4.44456 3
      vertex -6.65176 4.44456 0
    endloop
  endfacet
  facet normal -0.857731 0.514099 0
    outer loop
      vertex -6.65176 4.44456 3
      vertex -7.05537 3.77117 0
      vertex -7.05537 3.77117 3
    endloop
  endfacet
  facet normal -0.970032 -0.242979 0
    outer loop
      vertex -7.65552 -2.32228 0
      vertex -7.84628 -1.56072 3
      vertex -7.84628 -1.56072 0
    endloop
  endfacet
  facet normal -0.970032 -0.242979 0
    outer loop
      vertex -7.84628 -1.56072 3
      vertex -7.65552 -2.32228 0
      vertex -7.65552 -2.32228 3
    endloop
  endfacet
  facet normal 0.0490649 0.998796 -0
    outer loop
      vertex 0.784137 7.96148 0
      vertex 0 8 3
      vertex 0.784137 7.96148 3
    endloop
  endfacet
  facet normal 0.0490649 0.998796 0
    outer loop
      vertex 0 8 3
      vertex 0.784137 7.96148 0
      vertex 0 8 0
    endloop
  endfacet
  facet normal 0.857731 0.514099 0
    outer loop
      vertex 7.05537 3.77117 3
      vertex 6.65176 4.44456 0
      vertex 6.65176 4.44456 3
    endloop
  endfacet
  facet normal 0.857731 0.514099 0
    outer loop
      vertex 6.65176 4.44456 0
      vertex 7.05537 3.77117 3
      vertex 7.05537 3.77117 0
    endloop
  endfacet
  facet normal -0.941547 -0.336883 0
    outer loop
      vertex -7.39104 -3.06147 0
      vertex -7.65552 -2.32228 3
      vertex -7.65552 -2.32228 0
    endloop
  endfacet
  facet normal -0.941547 -0.336883 0
    outer loop
      vertex -7.65552 -2.32228 3
      vertex -7.39104 -3.06147 0
      vertex -7.39104 -3.06147 3
    endloop
  endfacet
  facet normal -0.671564 0.740946 0
    outer loop
      vertex -5.07515 6.18408 0
      vertex -5.65685 5.65685 3
      vertex -5.07515 6.18408 3
    endloop
  endfacet
  facet normal -0.671564 0.740946 0
    outer loop
      vertex -5.65685 5.65685 3
      vertex -5.07515 6.18408 0
      vertex -5.65685 5.65685 0
    endloop
  endfacet
  facet normal 0.970032 -0.242979 0
    outer loop
      vertex 7.65552 -2.32228 3
      vertex 7.84628 -1.56072 0
      vertex 7.84628 -1.56072 3
    endloop
  endfacet
  facet normal 0.970032 -0.242979 0
    outer loop
      vertex 7.84628 -1.56072 0
      vertex 7.65552 -2.32228 3
      vertex 7.65552 -2.32228 0
    endloop
  endfacet
  facet normal 0 0 -1
    outer loop
      vertex 7.96148 -0.784137 0
      vertex 7.96148 0.784137 0
      vertex 8 0 0
    endloop
  endfacet
  facet normal 0 0 -1
    outer loop
      vertex 7.84628 -1.56072 0
      vertex 7.96148 0.784137 0
      vertex 7.96148 -0.784137 0
    endloop
  endfacet
  facet normal 0 0 -1
    outer loop
      vertex 7.84628 -1.56072 0
      vertex 7.84628 1.56072 0
      vertex 7.96148 0.784137 0
    endloop
  endfacet
  facet normal 0 0 -1
    outer loop
      vertex 7.65552 -2.32228 0
      vertex 7.84628 1.56072 0
      vertex 7.84628 -1.56072 0
    endloop
  endfacet
  facet normal 0 0 -1
    outer loop
      vertex 7.65552 -2.32228 0
      vertex 7.65552 2.32228 0
      vertex 7.84628 1.56072 0
    endloop
  endfacet
  facet normal 0 0 -1
    outer loop
      vertex 7.39104 -3.06147 0
      vertex 7.65552 2.32228 0
      vertex 7.65552 -2.32228 0
    endloop
  endfacet
  facet normal 0 0 -1
    outer loop
      vertex 7.39104 -3.06147 0
      vertex 7.39104 3.06147 0
      vertex 7.65552 2.32228 0
    endloop
  endfacet
  facet normal 0 0 -1
    outer loop
      vertex 7.05537 -3.77117 0
      vertex 7.39104 3.06147 0
      vertex 7.39104 -3.06147 0
    endloop
  endfacet
  facet normal 0 0 -1
    outer loop
      vertex 7.05537 -3.77117 0
      vertex 7.05537 3.77117 0
      vertex 7.39104 3.06147 0
    endloop
  endfacet
  facet normal 0 0 -1
    outer loop
      vertex 6.65176 -4.44456 0
      vertex 7.05537 3.77117 0
      vertex 7.05537 -3.77117 0
    endloop
  endfacet
  facet normal 0 0 -1
    outer loop
      vertex 6.65176 -4.44456 0
      vertex 6.65176 4.44456 0
      vertex 7.05537 3.77117 0
    endloop
  endfacet
  facet normal 0 0 -1
    outer loop
      vertex 6.18408 -5.07515 0
      vertex 6.65176 4.44456 0
      vertex 6.65176 -4.44456 0
    endloop
  endfacet
  facet normal 0 0 -1
    outer loop
      vertex 6.18408 -5.07515 0
      vertex 6.18408 5.07515 0
      vertex 6.65176 4.44456 0
    endloop
  endfacet
  facet normal 0 0 -1
    outer loop
      vertex 5.65685 -5.65685 0
      vertex 6.18408 5.07515 0
      vertex 6.18408 -5.07515 0
    endloop
  endfacet
  facet normal 0 0 -1
    outer loop
      vertex 5.65685 -5.65685 0
      vertex 5.65685 5.65685 0
      vertex 6.18408 5.07515 0
    endloop
  endfacet
  facet normal 0 0 -1
    outer loop
      vertex 5.07515 -6.18408 0
      vertex 5.65685 5.65685 0
      vertex 5.65685 -5.65685 0
    endloop
  endfacet
  facet normal 0 0 -1
    outer loop
      vertex 5.07515 -6.18408 0
      vertex 5.07515 6.18408 0
      vertex 5.65685 5.65685 0
    endloop
  endfacet
  facet normal 0 0 -1
    outer loop
      vertex 4.44456 -6.65176 0
      vertex 5.07515 6.18408 0
      vertex 5.07515 -6.18408 0
    endloop
  endfacet
  facet normal 0 0 -1
    outer loop
      vertex 4.44456 -6.65176 0
      vertex 4.44456 6.65176 0
      vertex 5.07515 6.18408 0
    endloop
  endfacet
  facet normal 0 0 -1
    outer loop
      vertex 3.77117 -7.05537 0
      vertex 4.44456 6.65176 0
      vertex 4.44456 -6.65176 0
    endloop
  endfacet
  facet normal 0 0 -1
    outer loop
      vertex 3.77117 -7.05537 0
      vertex 3.77117 7.05537 0
      vertex 4.44456 6.65176 0
    endloop
  endfacet
  facet normal 0 0 -1
    outer loop
      vertex 3.06147 -7.39104 0
      vertex 3.77117 7.05537 0
      vertex 3.77117 -7.05537 0
    endloop
  endfacet
  facet normal 0 0 -1
    outer loop
      vertex 3.06147 -7.39104 0
      vertex 3.06147 7.39104 0
      vertex 3.77117 7.05537 0
    endloop
  endfacet
  facet normal 0 0 -1
    outer loop
      vertex 2.32228 -7.65552 0
      vertex 3.06147 7.39104 0
      vertex 3.06147 -7.39104 0
    endloop
  endfacet
  facet normal 0 0 -1
    outer loop
      vertex 2.32228 -7.65552 0
      vertex 2.32228 7.65552 0
      vertex 3.06147 7.39104 0
    endloop
  endfacet
  facet normal 0 0 -1
    outer loop
      vertex 1.56072 -7.84628 0
      vertex 2.32228 7.65552 0
      vertex 2.32228 -7.65552 0
    endloop
  endfacet
  facet normal 0 0 -1
    outer loop
      vertex 1.56072 -7.84628 0
      vertex 1.56072 7.84628 0
      vertex 2.32228 7.65552 0
    endloop
  endfacet
  facet normal 0 0 -1
    outer loop
      vertex 0.784137 -7.96148 0
      vertex 1.56072 7.84628 0
      vertex 1.56072 -7.84628 0
    endloop
  endfacet
  facet normal 0 0 -1
    outer loop
      vertex 0.784137 -7.96148 0
      vertex 0.784137 7.96148 0
      vertex 1.56072 7.84628 0
    endloop
  endfacet
  facet normal 0 0 -1
    outer loop
      vertex 0 -8 0
      vertex 0.784137 7.96148 0
      vertex 0.784137 -7.96148 0
    endloop
  endfacet
  facet normal 0 0 -1
    outer loop
      vertex 0 -8 0
      vertex 0 8 0
      vertex 0.784137 7.96148 0
    endloop
  endfacet
  facet normal 0 0 -1
    outer loop
      vertex -0.784137 -7.96148 0
      vertex 0 8 0
      vertex 0 -8 0
    endloop
  endfacet
  facet normal 0 0 -1
    outer loop
      vertex -0.784137 -7.96148 0
      vertex -0.784137 7.96148 0
      vertex 0 8 0
    endloop
  endfacet
  facet normal 0 0 -1
    outer loop
      vertex -1.56072 -7.84628 0
      vertex -0.784137 7.96148 0
      vertex -0.784137 -7.96148 0
    endloop
  endfacet
  facet normal 0 0 -1
    outer loop
      vertex -1.56072 -7.84628 0
      vertex -1.56072 7.84628 0
      vertex -0.784137 7.96148 0
    endloop
  endfacet
  facet normal 0 0 -1
    outer loop
      vertex -2.32228 -7.65552 0
      vertex -1.56072 7.84628 0
      vertex -1.56072 -7.84628 0
    endloop
  endfacet
  facet normal 0 0 -1
    outer loop
      vertex -2.32228 -7.65552 0
      vertex -2.32228 7.65552 0
      vertex -1.56072 7.84628 0
    endloop
  endfacet
  facet normal 0 0 -1
    outer loop
      vertex -3.06147 -7.39104 0
      vertex -2.32228 7.65552 0
      vertex -2.32228 -7.65552 0
    endloop
  endfacet
  facet normal 0 0 -1
    outer loop
      vertex -3.06147 -7.39104 0
      vertex -3.06147 7.39104 0
      vertex -2.32228 7.65552 0
    endloop
  endfacet
  facet normal 0 0 -1
    outer loop
      vertex -3.77117 -7.05537 0
      vertex -3.06147 7.39104 0
      vertex -3.06147 -7.39104 0
    endloop
  endfacet
  facet normal 0 0 -1
    outer loop
      vertex -3.77117 -7.05537 0
      vertex -3.77117 7.05537 0
      vertex -3.06147 7.39104 0
    endloop
  endfacet
  facet normal 0 0 -1
    outer loop
      vertex -4.44456 -6.65176 0
      vertex -3.77117 7.05537 0
      vertex -3.77117 -7.05537 0
    endloop
  endfacet
  facet normal 0 0 -1
    outer loop
      vertex -4.44456 -6.65176 0
      vertex -4.44456 6.65176 0
      vertex -3.77117 7.05537 0
    endloop
  endfacet
  facet normal 0 0 -1
    outer loop
      vertex -5.07515 -6.18408 0
      vertex -4.44456 6.65176 0
      vertex -4.44456 -6.65176 0
    endloop
  endfacet
  facet normal 0 0 -1
    outer loop
      vertex -5.07515 -6.18408 0
      vertex -5.07515 6.18408 0
      vertex -4.44456 6.65176 0
    endloop
  endfacet
  facet normal 0 0 -1
    outer loop
      vertex -5.65685 -5.65685 0
      vertex -5.07515 6.18408 0
      vertex -5.07515 -6.18408 0
    endloop
  endfacet
  facet normal 0 0 -1
    outer loop
      vertex -5.65685 -5.65685 0
      vertex -5.65685 5.65685 0
      vertex -5.07515 6.18408 0
    endloop
  endfacet
  facet normal 0 0 -1
    outer loop
      vertex -6.18408 -5.07515 0
      vertex -5.65685 5.65685 0
      vertex -5.65685 -5.65685 0
    endloop
  endfacet
  facet normal 0 0 -1
    outer loop
      vertex -6.18408 -5.07515 0
      vertex -6.18408 5.07515 0
      vertex -5.65685 5.65685 0
    endloop
  endfacet
  facet normal 0 0 -1
    outer loop
      vertex -6.65176 -4.44456 0
      vertex -6.18408 5.07515 0
      vertex -6.18408 -5.07515 0
    endloop
  endfacet
  facet normal 0 0 -1
    outer loop
      vertex -6.65176 -4.44456 0
      vertex -6.65176 4.44456 0
      vertex -6.18408 5.07515 0
    endloop
  endfacet
  facet normal 0 0 -1
    outer loop
      vertex -7.05537 -3.77117 0
      vertex -6.65176 4.44456 0
      vertex -6.65176 -4.44456 0
    endloop
  endfacet
  facet normal 0 0 -1
    outer loop
      vertex -7.05537 -3.77117 0
      vertex -7.05537 3.77117 0
      vertex -6.65176 4.44456 0
    endloop
  endfacet
  facet normal 0 0 -1
    outer loop
      vertex -7.39104 -3.06147 0
      vertex -7.05537 3.77117 0
      vertex -7.05537 -3.77117 0
    endloop
  endfacet
  facet normal 0 0 -1
    outer loop
      vertex -7.39104 -3.06147 0
      vertex -7.39104 3.06147 0
      vertex -7.05537 3.77117 0
    endloop
  endfacet
  facet normal 0 0 -1
    outer loop
      vertex -7.65552 -2.32228 0
      vertex -7.39104 3.06147 0
      vertex -7.39104 -3.06147 0
    endloop
  endfacet
  facet normal 0 0 -1
    outer loop
      vertex -7.65552 -2.32228 0
      vertex -7.65552 2.32228 0
      vertex -7.39104 3.06147 0
    endloop
  endfacet
  facet normal 0 0 -1
    outer loop
      vertex -7.84628 -1.56072 0
      vertex -7.65552 2.32228 0
      vertex -7.65552 -2.32228 0
    endloop
  endfacet
  facet normal 0 0 -1
    outer loop
      vertex -7.84628 -1.56072 0
      vertex -7.84628 1.56072 0
      vertex -7.65552 2.32228 0
    endloop
  endfacet
  facet normal 0 0 -1
    outer loop
      vertex -7.96148 -0.784137 0
      vertex -7.84628 1.56072 0
      vertex -7.84628 -1.56072 0
    endloop
  endfacet
  facet normal 0 0 -1
    outer loop
      vertex -7.96148 -0.784137 0
      vertex -7.96148 0.784137 0
      vertex -7.84628 1.56072 0
    endloop
  endfacet
  facet normal 0 -0 -1
    outer loop
      vertex -7.96148 0.784137 0
      vertex -7.96148 -0.784137 0
      vertex -8 0 0
    endloop
  endfacet
  facet normal -0.514099 0.857731 0
    outer loop
      vertex -3.77117 7.05537 0
      vertex -4.44456 6.65176 3
      vertex -3.77117 7.05537 3
    endloop
  endfacet
  facet normal -0.514099 0.857731 0
    outer loop
      vertex -4.44456 6.65176 3
      vertex -3.77117 7.05537 0
      vertex -4.44456 6.65176 0
    endloop
  endfacet
  facet normal -0.998796 -0.0490649 0
    outer loop
      vertex -7.96148 -0.784137 0
      vertex -8 0 3
      vertex -8 0 0
    endloop
  endfacet
  facet normal -0.998796 -0.0490649 0
    outer loop
      vertex -8 0 3
      vertex -7.96148 -0.784137 0
      vertex -7.96148 -0.784137 3
    endloop
  endfacet
  facet normal -0.970032 0.242979 0
    outer loop
      vertex -7.84628 1.56072 0
      vertex -7.65552 2.32228 3
      vertex -7.65552 2.32228 0
    endloop
  endfacet
  facet normal -0.970032 0.242979 0
    outer loop
      vertex -7.65552 2.32228 3
      vertex -7.84628 1.56072 0
      vertex -7.84628 1.56072 3
    endloop
  endfacet
  facet normal 0.427562 -0.903986 0
    outer loop
      vertex 3.06147 -7.39104 0
      vertex 3.77117 -7.05537 3
      vertex 3.06147 -7.39104 3
    endloop
  endfacet
  facet normal 0.427562 -0.903986 0
    outer loop
      vertex 3.77117 -7.05537 3
      vertex 3.06147 -7.39104 0
      vertex 3.77117 -7.05537 0
    endloop
  endfacet
  facet normal -0.336883 -0.941547 0
    outer loop
      vertex -3.06147 -7.39104 0
      vertex -2.32228 -7.65552 3
      vertex -3.06147 -7.39104 3
    endloop
  endfacet
  facet normal -0.336883 -0.941547 -0
    outer loop
      vertex -2.32228 -7.65552 3
      vertex -3.06147 -7.39104 0
      vertex -2.32228 -7.65552 0
    endloop
  endfacet
  facet normal -0.336883 0.941547 0
    outer loop
      vertex -2.32228 7.65552 0
      vertex -3.06147 7.39104 3
      vertex -2.32228 7.65552 3
    endloop
  endfacet
  facet normal -0.336883 0.941547 0
    outer loop
      vertex -3.06147 7.39104 3
      vertex -2.32228 7.65552 0
      vertex -3.06147 7.39104 0
    endloop
  endfacet
  facet normal 0.514099 -0.857731 0
    outer loop
      vertex 3.77117 -7.05537 0
      vertex 4.44456 -6.65176 3
      vertex 3.77117 -7.05537 3
    endloop
  endfacet
  facet normal 0.514099 -0.857731 0
    outer loop
      vertex 4.44456 -6.65176 3
      vertex 3.77117 -7.05537 0
      vertex 4.44456 -6.65176 0
    endloop
  endfacet
  facet normal 0.146736 -0.989176 0
    outer loop
      vertex 0.784137 -7.96148 0
      vertex 1.56072 -7.84628 3
      vertex 0.784137 -7.96148 3
    endloop
  endfacet
  facet normal 0.146736 -0.989176 0
    outer loop
      vertex 1.56072 -7.84628 3
      vertex 0.784137 -7.96148 0
      vertex 1.56072 -7.84628 0
    endloop
  endfacet
  facet normal 0.740946 -0.671564 0
    outer loop
      vertex 5.65685 -5.65685 3
      vertex 6.18408 -5.07515 0
      vertex 6.18408 -5.07515 3
    endloop
  endfacet
  facet normal 0.740946 -0.671564 0
    outer loop
      vertex 6.18408 -5.07515 0
      vertex 5.65685 -5.65685 3
      vertex 5.65685 -5.65685 0
    endloop
  endfacet
  facet normal 0.803206 -0.595701 0
    outer loop
      vertex 6.18408 -5.07515 3
      vertex 6.65176 -4.44456 0
      vertex 6.65176 -4.44456 3
    endloop
  endfacet
  facet normal 0.803206 -0.595701 0
    outer loop
      vertex 6.65176 -4.44456 0
      vertex 6.18408 -5.07515 3
      vertex 6.18408 -5.07515 0
    endloop
  endfacet
  facet normal -0.0490649 0.998796 0
    outer loop
      vertex 0 8 0
      vertex -0.784137 7.96148 3
      vertex 0 8 3
    endloop
  endfacet
  facet normal -0.0490649 0.998796 0
    outer loop
      vertex -0.784137 7.96148 3
      vertex 0 8 0
      vertex -0.784137 7.96148 0
    endloop
  endfacet
  facet normal -0.427562 0.903986 0
    outer loop
      vertex -3.06147 7.39104 0
      vertex -3.77117 7.05537 3
      vertex -3.06147 7.39104 3
    endloop
  endfacet
  facet normal -0.427562 0.903986 0
    outer loop
      vertex -3.77117 7.05537 3
      vertex -3.06147 7.39104 0
      vertex -3.77117 7.05537 0
    endloop
  endfacet
  facet normal -0.595701 0.803206 0
    outer loop
      vertex -4.44456 6.65176 0
      vertex -5.07515 6.18408 3
      vertex -4.44456 6.65176 3
    endloop
  endfacet
  facet normal -0.595701 0.803206 0
    outer loop
      vertex -5.07515 6.18408 3
      vertex -4.44456 6.65176 0
      vertex -5.07515 6.18408 0
    endloop
  endfacet
  facet normal -0.989176 0.146736 0
    outer loop
      vertex -7.96148 0.784137 0
      vertex -7.84628 1.56072 3
      vertex -7.84628 1.56072 0
    endloop
  endfacet
  facet normal -0.989176 0.146736 0
    outer loop
      vertex -7.84628 1.56072 3
      vertex -7.96148 0.784137 0
      vertex -7.96148 0.784137 3
    endloop
  endfacet
  facet normal -0.242979 -0.970032 0
    outer loop
      vertex -2.32228 -7.65552 0
      vertex -1.56072 -7.84628 3
      vertex -2.32228 -7.65552 3
    endloop
  endfacet
  facet normal -0.242979 -0.970032 -0
    outer loop
      vertex -1.56072 -7.84628 3
      vertex -2.32228 -7.65552 0
      vertex -1.56072 -7.84628 0
    endloop
  endfacet
  facet normal 0.970032 0.242979 0
    outer loop
      vertex 7.84628 1.56072 3
      vertex 7.65552 2.32228 0
      vertex 7.65552 2.32228 3
    endloop
  endfacet
  facet normal 0.970032 0.242979 0
    outer loop
      vertex 7.65552 2.32228 0
      vertex 7.84628 1.56072 3
      vertex 7.84628 1.56072 0
    endloop
  endfacet
  facet normal 0.803206 0.595701 0
    outer loop
      vertex 6.65176 4.44456 3
      vertex 6.18408 5.07515 0
      vertex 6.18408 5.07515 3
    endloop
  endfacet
  facet normal 0.803206 0.595701 0
    outer loop
      vertex 6.18408 5.07515 0
      vertex 6.65176 4.44456 3
      vertex 6.65176 4.44456 0
    endloop
  endfacet
  facet normal -0.803206 -0.595701 0
    outer loop
      vertex -6.18408 -5.07515 0
      vertex -6.65176 -4.44456 3
      vertex -6.65176 -4.44456 0
    endloop
  endfacet
  facet normal -0.803206 -0.595701 0
    outer loop
      vertex -6.65176 -4.44456 3
      vertex -6.18408 -5.07515 0
      vertex -6.18408 -5.07515 3
    endloop
  endfacet
  facet normal -0.903986 -0.427562 0
    outer loop
      vertex -7.05537 -3.77117 0
      vertex -7.39104 -3.06147 3
      vertex -7.39104 -3.06147 0
    endloop
  endfacet
  facet normal -0.903986 -0.427562 0
    outer loop
      vertex -7.39104 -3.06147 3
      vertex -7.05537 -3.77117 0
      vertex -7.05537 -3.77117 3
    endloop
  endfacet
  facet normal 0.146736 0.989176 -0
    outer loop
      vertex 1.56072 7.84628 0
      vertex 0.784137 7.96148 3
      vertex 1.56072 7.84628 3
    endloop
  endfacet
  facet normal 0.146736 0.989176 0
    outer loop
      vertex 0.784137 7.96148 3
      vertex 1.56072 7.84628 0
      vertex 0.784137 7.96148 0
    endloop
  endfacet
  facet normal -0.427562 -0.903986 0
    outer loop
      vertex -3.77117 -7.05537 0
      vertex -3.06147 -7.39104 3
      vertex -3.77117 -7.05537 3
    endloop
  endfacet
  facet normal -0.427562 -0.903986 -0
    outer loop
      vertex -3.06147 -7.39104 3
      vertex -3.77117 -7.05537 0
      vertex -3.06147 -7.39104 0
    endloop
  endfacet
  facet normal 0.595701 -0.803206 0
    outer loop
      vertex 4.44456 -6.65176 0
      vertex 5.07515 -6.18408 3
      vertex 4.44456 -6.65176 3
    endloop
  endfacet
  facet normal 0.595701 -0.803206 0
    outer loop
      vertex 5.07515 -6.18408 3
      vertex 4.44456 -6.65176 0
      vertex 5.07515 -6.18408 0
    endloop
  endfacet
  facet normal 0.998796 -0.0490649 0
    outer loop
      vertex 7.96148 -0.784137 3
      vertex 8 0 0
      vertex 8 0 3
    endloop
  endfacet
  facet normal 0.998796 -0.0490649 0
    outer loop
      vertex 8 0 0
      vertex 7.96148 -0.784137 3
      vertex 7.96148 -0.784137 0
    endloop
  endfacet
  facet normal -0.146736 0.989176 0
    outer loop
      vertex -0.784137 7.96148 0
      vertex -1.56072 7.84628 3
      vertex -0.784137 7.96148 3
    endloop
  endfacet
  facet normal -0.146736 0.989176 0
    outer loop
      vertex -1.56072 7.84628 3
      vertex -0.784137 7.96148 0
      vertex -1.56072 7.84628 0
    endloop
  endfacet
  facet normal -0.989176 -0.146736 0
    outer loop
      vertex -7.84628 -1.56072 0
      vertex -7.96148 -0.784137 3
      vertex -7.96148 -0.784137 0
    endloop
  endfacet
  facet normal -0.989176 -0.146736 0
    outer loop
      vertex -7.96148 -0.784137 3
      vertex -7.84628 -1.56072 0
      vertex -7.84628 -1.56072 3
    endloop
  endfacet
  facet normal 0.336883 -0.941547 0
    outer loop
      vertex 2.32228 -7.65552 0
      vertex 3.06147 -7.39104 3
      vertex 2.32228 -7.65552 3
    endloop
  endfacet
  facet normal 0.336883 -0.941547 0
    outer loop
      vertex 3.06147 -7.39104 3
      vertex 2.32228 -7.65552 0
      vertex 3.06147 -7.39104 0
    endloop
  endfacet
  facet normal 0.242979 -0.970032 0
    outer loop
      vertex 1.56072 -7.84628 0
      vertex 2.32228 -7.65552 3
      vertex 1.56072 -7.84628 3
    endloop
  endfacet
  facet normal 0.242979 -0.970032 0
    outer loop
      vertex 2.32228 -7.65552 3
      vertex 1.56072 -7.84628 0
      vertex 2.32228 -7.65552 0
    endloop
  endfacet
  facet normal -0.740946 -0.671564 0
    outer loop
      vertex -5.65685 -5.65685 0
      vertex -6.18408 -5.07515 3
      vertex -6.18408 -5.07515 0
    endloop
  endfacet
  facet normal -0.740946 -0.671564 0
    outer loop
      vertex -6.18408 -5.07515 3
      vertex -5.65685 -5.65685 0
      vertex -5.65685 -5.65685 3
    endloop
  endfacet
  facet normal -0.903986 0.427562 0
    outer loop
      vertex -7.39104 3.06147 0
      vertex -7.05537 3.77117 3
      vertex -7.05537 3.77117 0
    endloop
  endfacet
  facet normal -0.903986 0.427562 0
    outer loop
      vertex -7.05537 3.77117 3
      vertex -7.39104 3.06147 0
      vertex -7.39104 3.06147 3
    endloop
  endfacet
  facet normal -0.595701 -0.803206 0
    outer loop
      vertex -5.07515 -6.18408 0
      vertex -4.44456 -6.65176 3
      vertex -5.07515 -6.18408 3
    endloop
  endfacet
  facet normal -0.595701 -0.803206 -0
    outer loop
      vertex -4.44456 -6.65176 3
      vertex -5.07515 -6.18408 0
      vertex -4.44456 -6.65176 0
    endloop
  endfacet
  facet normal 0.903986 -0.427562 0
    outer loop
      vertex 7.05537 -3.77117 3
      vertex 7.39104 -3.06147 0
      vertex 7.39104 -3.06147 3
    endloop
  endfacet
  facet normal 0.903986 -0.427562 0
    outer loop
      vertex 7.39104 -3.06147 0
      vertex 7.05537 -3.77117 3
      vertex 7.05537 -3.77117 0
    endloop
  endfacet
  facet normal 0.857731 -0.514099 0
    outer loop
      vertex 6.65176 -4.44456 3
      vertex 7.05537 -3.77117 0
      vertex 7.05537 -3.77117 3
    endloop
  endfacet
  facet normal 0.857731 -0.514099 0
    outer loop
      vertex 7.05537 -3.77117 0
      vertex 6.65176 -4.44456 3
      vertex 6.65176 -4.44456 0
    endloop
  endfacet
  facet normal -0.0490649 -0.998796 0
    outer loop
      vertex -0.784137 -7.96148 0
      vertex 0 -8 3
      vertex -0.784137 -7.96148 3
    endloop
  endfacet
  facet normal -0.0490649 -0.998796 -0
    outer loop
      vertex 0 -8 3
      vertex -0.784137 -7.96148 0
      vertex 0 -8 0
    endloop
  endfacet
  facet normal 0 0 1
    outer loop
      vertex 4 0 3
      vertex 8 0 3
      vertex 7.96148 0.784137 3
    endloop
  endfacet
  facet normal 0 0 1
    outer loop
      vertex 3.98074 0.392068 3
      vertex 7.96148 0.784137 3
      vertex 7.84628 1.56072 3
    endloop
  endfacet
  facet normal 0 0 1
    outer loop
      vertex 8 0 3
      vertex 4 0 3
      vertex 7.96148 -0.784137 3
    endloop
  endfacet
  facet normal 0 0 1
    outer loop
      vertex 3.92314 0.780361 3
      vertex 7.84628 1.56072 3
      vertex 7.65552 2.32228 3
    endloop
  endfacet
  facet normal -0 0 1
    outer loop
      vertex 3.98074 -0.392068 3
      vertex 7.96148 -0.784137 3
      vertex 4 0 3
    endloop
  endfacet
  facet normal 0 0 1
    outer loop
      vertex 3.82776 1.16114 3
      vertex 7.65552 2.32228 3
      vertex 7.39104 3.06147 3
    endloop
  endfacet
  facet normal 0 0 1
    outer loop
      vertex 7.96148 -0.784137 3
      vertex 3.98074 -0.392068 3
      vertex 7.84628 -1.56072 3
    endloop
  endfacet
  facet normal 0 0 1
    outer loop
      vertex 3.69552 1.53073 3
      vertex 7.39104 3.06147 3
      vertex 7.05537 3.77117 3
    endloop
  endfacet
  facet normal -0 0 1
    outer loop
      vertex 3.92314 -0.780361 3
      vertex 7.84628 -1.56072 3
      vertex 3.98074 -0.392068 3
    endloop
  endfacet
  facet normal 0 0 1
    outer loop
      vertex 3.52768 1.88559 3
      vertex 7.05537 3.77117 3
      vertex 6.65176 4.44456 3
    endloop
  endfacet
  facet normal 0 0 1
    outer loop
      vertex 7.84628 -1.56072 3
      vertex 3.92314 -0.780361 3
      vertex 7.65552 -2.32228 3
    endloop
  endfacet
  facet normal 0 0 1
    outer loop
      vertex 3.32588 2.22228 3
      vertex 6.65176 4.44456 3
      vertex 6.18408 5.07515 3
    endloop
  endfacet
  facet normal -0 0 1
    outer loop
      vertex 3.82776 -1.16114 3
      vertex 7.65552 -2.32228 3
      vertex 3.92314 -0.780361 3
    endloop
  endfacet
  facet normal 0 0 1
    outer loop
      vertex 3.09204 2.53757 3
      vertex 6.18408 5.07515 3
      vertex 5.65685 5.65685 3
    endloop
  endfacet
  facet normal 0 0 1
    outer loop
      vertex 7.65552 -2.32228 3
      vertex 3.82776 -1.16114 3
      vertex 7.39104 -3.06147 3
    endloop
  endfacet
  facet normal 0 0 1
    outer loop
      vertex 2.82843 2.82843 3
      vertex 5.65685 5.65685 3
      vertex 5.07515 6.18408 3
    endloop
  endfacet
  facet normal -0 0 1
    outer loop
      vertex 3.69552 -1.53073 3
      vertex 7.39104 -3.06147 3
      vertex 3.82776 -1.16114 3
    endloop
  endfacet
  facet normal 0 0 1
    outer loop
      vertex 2.53757 3.09204 3
      vertex 5.07515 6.18408 3
      vertex 4.44456 6.65176 3
    endloop
  endfacet
  facet normal 0 0 1
    outer loop
      vertex 7.39104 -3.06147 3
      vertex 3.69552 -1.53073 3
      vertex 7.05537 -3.77117 3
    endloop
  endfacet
  facet normal -0 0 1
    outer loop
      vertex 3.52768 -1.88559 3
      vertex 7.05537 -3.77117 3
      vertex 3.69552 -1.53073 3
    endloop
  endfacet
  facet normal 0 0 1
    outer loop
      vertex 7.96148 0.784137 3
      vertex 3.98074 0.392068 3
      vertex 4 0 3
    endloop
  endfacet
  facet normal 0 0 1
    outer loop
      vertex 7.84628 1.56072 3
      vertex 3.92314 0.780361 3
      vertex 3.98074 0.392068 3
    endloop
  endfacet
  facet normal 0 0 1
    outer loop
      vertex 7.65552 2.32228 3
      vertex 3.82776 1.16114 3
      vertex 3.92314 0.780361 3
    endloop
  endfacet
  facet normal 0 0 1
    outer loop
      vertex 2.22228 3.32588 3
      vertex 4.44456 6.65176 3
      vertex 3.77117 7.05537 3
    endloop
  endfacet
  facet normal 0 0 1
    outer loop
      vertex 7.39104 3.06147 3
      vertex 3.69552 1.53073 3
      vertex 3.82776 1.16114 3
    endloop
  endfacet
  facet normal 0 0 1
    outer loop
      vertex 7.05537 3.77117 3
      vertex 3.52768 1.88559 3
      vertex 3.69552 1.53073 3
    endloop
  endfacet
  facet normal 0 0 1
    outer loop
      vertex 6.65176 4.44456 3
      vertex 3.32588 2.22228 3
      vertex 3.52768 1.88559 3
    endloop
  endfacet
  facet normal 0 0 1
    outer loop
      vertex 6.18408 5.07515 3
      vertex 3.09204 2.53757 3
      vertex 3.32588 2.22228 3
    endloop
  endfacet
  facet normal 0 0 1
    outer loop
      vertex 1.88559 3.52768 3
      vertex 3.77117 7.05537 3
      vertex 3.06147 7.39104 3
    endloop
  endfacet
  facet normal 0 0 1
    outer loop
      vertex 5.65685 5.65685 3
      vertex 2.82843 2.82843 3
      vertex 3.09204 2.53757 3
    endloop
  endfacet
  facet normal 0 0 1
    outer loop
      vertex 5.07515 6.18408 3
      vertex 2.53757 3.09204 3
      vertex 2.82843 2.82843 3
    endloop
  endfacet
  facet normal 0 0 1
    outer loop
      vertex 1.53073 3.69552 3
      vertex 3.06147 7.39104 3
      vertex 2.32228 7.65552 3
    endloop
  endfacet
  facet normal 0 0 1
    outer loop
      vertex 4.44456 6.65176 3
      vertex 2.22228 3.32588 3
      vertex 2.53757 3.09204 3
    endloop
  endfacet
  facet normal 0 0 1
    outer loop
      vertex 3.77117 7.05537 3
      vertex 1.88559 3.52768 3
      vertex 2.22228 3.32588 3
    endloop
  endfacet
  facet normal 0 0 1
    outer loop
      vertex 1.16114 3.82776 3
      vertex 2.32228 7.65552 3
      vertex 1.56072 7.84628 3
    endloop
  endfacet
  facet normal 0 0 1
    outer loop
      vertex 3.06147 7.39104 3
      vertex 1.53073 3.69552 3
      vertex 1.88559 3.52768 3
    endloop
  endfacet
  facet normal 0 0 1
    outer loop
      vertex 2.32228 7.65552 3
      vertex 1.16114 3.82776 3
      vertex 1.53073 3.69552 3
    endloop
  endfacet
  facet normal 0 0 1
    outer loop
      vertex 0.780361 3.92314 3
      vertex 1.56072 7.84628 3
      vertex 0.784137 7.96148 3
    endloop
  endfacet
  facet normal 0 0 1
    outer loop
      vertex 1.56072 7.84628 3
      vertex 0.780361 3.92314 3
      vertex 1.16114 3.82776 3
    endloop
  endfacet
  facet normal 0 0 1
    outer loop
      vertex 0.784137 7.96148 3
      vertex 0.392068 3.98074 3
      vertex 0.780361 3.92314 3
    endloop
  endfacet
  facet normal 0 0 1
    outer loop
      vertex 0 8 3
      vertex 0.392068 3.98074 3
      vertex 0.784137 7.96148 3
    endloop
  endfacet
  facet normal 0 0 1
    outer loop
      vertex 0 8 3
      vertex 0 4 3
      vertex 0.392068 3.98074 3
    endloop
  endfacet
  facet normal 0 0 1
    outer loop
      vertex 0 8 3
      vertex -0.392068 3.98074 3
      vertex 0 4 3
    endloop
  endfacet
  facet normal -0 0 1
    outer loop
      vertex -0.784137 7.96148 3
      vertex -0.392068 3.98074 3
      vertex 0 8 3
    endloop
  endfacet
  facet normal 0 0 1
    outer loop
      vertex -0.392068 3.98074 3
      vertex -0.784137 7.96148 3
      vertex -0.780361 3.92314 3
    endloop
  endfacet
  facet normal -0 0 1
    outer loop
      vertex -1.56072 7.84628 3
      vertex -0.780361 3.92314 3
      vertex -0.784137 7.96148 3
    endloop
  endfacet
  facet normal 0 0 1
    outer loop
      vertex -0.780361 3.92314 3
      vertex -1.56072 7.84628 3
      vertex -1.16114 3.82776 3
    endloop
  endfacet
  facet normal -0 0 1
    outer loop
      vertex -2.32228 7.65552 3
      vertex -1.16114 3.82776 3
      vertex -1.56072 7.84628 3
    endloop
  endfacet
  facet normal 0 0 1
    outer loop
      vertex -1.16114 3.82776 3
      vertex -2.32228 7.65552 3
      vertex -1.53073 3.69552 3
    endloop
  endfacet
  facet normal -0 0 1
    outer loop
      vertex -3.06147 7.39104 3
      vertex -1.53073 3.69552 3
      vertex -2.32228 7.65552 3
    endloop
  endfacet
  facet normal 0 0 1
    outer loop
      vertex -1.53073 3.69552 3
      vertex -3.06147 7.39104 3
      vertex -1.88559 3.52768 3
    endloop
  endfacet
  facet normal -0 0 1
    outer loop
      vertex -3.77117 7.05537 3
      vertex -1.88559 3.52768 3
      vertex -3.06147 7.39104 3
    endloop
  endfacet
  facet normal 0 0 1
    outer loop
      vertex -1.88559 3.52768 3
      vertex -3.77117 7.05537 3
      vertex -2.22228 3.32588 3
    endloop
  endfacet
  facet normal -0 0 1
    outer loop
      vertex -4.44456 6.65176 3
      vertex -2.22228 3.32588 3
      vertex -3.77117 7.05537 3
    endloop
  endfacet
  facet normal 0 0 1
    outer loop
      vertex -2.22228 3.32588 3
      vertex -4.44456 6.65176 3
      vertex -2.53757 3.09204 3
    endloop
  endfacet
  facet normal -0 0 1
    outer loop
      vertex -5.07515 6.18408 3
      vertex -2.53757 3.09204 3
      vertex -4.44456 6.65176 3
    endloop
  endfacet
  facet normal 0 0 1
    outer loop
      vertex -2.53757 3.09204 3
      vertex -5.07515 6.18408 3
      vertex -2.82843 2.82843 3
    endloop
  endfacet
  facet normal -0 0 1
    outer loop
      vertex -5.65685 5.65685 3
      vertex -2.82843 2.82843 3
      vertex -5.07515 6.18408 3
    endloop
  endfacet
  facet normal 0 0 1
    outer loop
      vertex -2.82843 2.82843 3
      vertex -5.65685 5.65685 3
      vertex -3.09204 2.53757 3
    endloop
  endfacet
  facet normal -0 0 1
    outer loop
      vertex -6.18408 5.07515 3
      vertex -3.09204 2.53757 3
      vertex -5.65685 5.65685 3
    endloop
  endfacet
  facet normal 0 0 1
    outer loop
      vertex -3.09204 2.53757 3
      vertex -6.18408 5.07515 3
      vertex -3.32588 2.22228 3
    endloop
  endfacet
  facet normal -0 0 1
    outer loop
      vertex -6.65176 4.44456 3
      vertex -3.32588 2.22228 3
      vertex -6.18408 5.07515 3
    endloop
  endfacet
  facet normal 0 0 1
    outer loop
      vertex -3.32588 2.22228 3
      vertex -6.65176 4.44456 3
      vertex -3.52768 1.88559 3
    endloop
  endfacet
  facet normal -0 0 1
    outer loop
      vertex -7.05537 3.77117 3
      vertex -3.52768 1.88559 3
      vertex -6.65176 4.44456 3
    endloop
  endfacet
  facet normal 0 0 1
    outer loop
      vertex 7.05537 -3.77117 3
      vertex 3.52768 -1.88559 3
      vertex 6.65176 -4.44456 3
    endloop
  endfacet
  facet normal -0 0 1
    outer loop
      vertex 3.32588 -2.22228 3
      vertex 6.65176 -4.44456 3
      vertex 3.52768 -1.88559 3
    endloop
  endfacet
  facet normal 0 0 1
    outer loop
      vertex 6.65176 -4.44456 3
      vertex 3.32588 -2.22228 3
      vertex 6.18408 -5.07515 3
    endloop
  endfacet
  facet normal -0 0 1
    outer loop
      vertex 3.09204 -2.53757 3
      vertex 6.18408 -5.07515 3
      vertex 3.32588 -2.22228 3
    endloop
  endfacet
  facet normal 0 0 1
    outer loop
      vertex 6.18408 -5.07515 3
      vertex 3.09204 -2.53757 3
      vertex 5.65685 -5.65685 3
    endloop
  endfacet
  facet normal -0 0 1
    outer loop
      vertex 2.82843 -2.82843 3
      vertex 5.65685 -5.65685 3
      vertex 3.09204 -2.53757 3
    endloop
  endfacet
  facet normal 0 0 1
    outer loop
      vertex 5.65685 -5.65685 3
      vertex 2.82843 -2.82843 3
      vertex 5.07515 -6.18408 3
    endloop
  endfacet
  facet normal -0 0 1
    outer loop
      vertex 2.53757 -3.09204 3
      vertex 5.07515 -6.18408 3
      vertex 2.82843 -2.82843 3
    endloop
  endfacet
  facet normal 0 0 1
    outer loop
      vertex 5.07515 -6.18408 3
      vertex 2.53757 -3.09204 3
      vertex 4.44456 -6.65176 3
    endloop
  endfacet
  facet normal -0 0 1
    outer loop
      vertex 2.22228 -3.32588 3
      vertex 4.44456 -6.65176 3
      vertex 2.53757 -3.09204 3
    endloop
  endfacet
  facet normal 0 0 1
    outer loop
      vertex 4.44456 -6.65176 3
      vertex 2.22228 -3.32588 3
      vertex 3.77117 -7.05537 3
    endloop
  endfacet
  facet normal -0 0 1
    outer loop
      vertex 1.88559 -3.52768 3
      vertex 3.77117 -7.05537 3
      vertex 2.22228 -3.32588 3
    endloop
  endfacet
  facet normal 0 0 1
    outer loop
      vertex 3.77117 -7.05537 3
      vertex 1.88559 -3.52768 3
      vertex 3.06147 -7.39104 3
    endloop
  endfacet
  facet normal -0 0 1
    outer loop
      vertex 1.53073 -3.69552 3
      vertex 3.06147 -7.39104 3
      vertex 1.88559 -3.52768 3
    endloop
  endfacet
  facet normal 0 0 1
    outer loop
      vertex 3.06147 -7.39104 3
      vertex 1.53073 -3.69552 3
      vertex 2.32228 -7.65552 3
    endloop
  endfacet
  facet normal -0 0 1
    outer loop
      vertex 1.16114 -3.82776 3
      vertex 2.32228 -7.65552 3
      vertex 1.53073 -3.69552 3
    endloop
  endfacet
  facet normal 0 0 1
    outer loop
      vertex 2.32228 -7.65552 3
      vertex 1.16114 -3.82776 3
      vertex 1.56072 -7.84628 3
    endloop
  endfacet
  facet normal -0 0 1
    outer loop
      vertex 0.780361 -3.92314 3
      vertex 1.56072 -7.84628 3
      vertex 1.16114 -3.82776 3
    endloop
  endfacet
  facet normal 0 0 1
    outer loop
      vertex 1.56072 -7.84628 3
      vertex 0.780361 -3.92314 3
      vertex 0.784137 -7.96148 3
    endloop
  endfacet
  facet normal -0 0 1
    outer loop
      vertex 0.392068 -3.98074 3
      vertex 0.784137 -7.96148 3
      vertex 0.780361 -3.92314 3
    endloop
  endfacet
  facet normal -0 0 1
    outer loop
      vertex 0 -4 3
      vertex 0.784137 -7.96148 3
      vertex 0.392068 -3.98074 3
    endloop
  endfacet
  facet normal 0 0 1
    outer loop
      vertex 0 -4 3
      vertex 0 -8 3
      vertex 0.784137 -7.96148 3
    endloop
  endfacet
  facet normal 0 0 1
    outer loop
      vertex -0.392068 -3.98074 3
      vertex 0 -8 3
      vertex 0 -4 3
    endloop
  endfacet
  facet normal 0 0 1
    outer loop
      vertex -0.784137 -7.96148 3
      vertex -0.392068 -3.98074 3
      vertex -0.780361 -3.92314 3
    endloop
  endfacet
  facet normal 0 0 1
    outer loop
      vertex -0.392068 -3.98074 3
      vertex -0.784137 -7.96148 3
      vertex 0 -8 3
    endloop
  endfacet
  facet normal 0 0 1
    outer loop
      vertex -1.56072 -7.84628 3
      vertex -0.780361 -3.92314 3
      vertex -1.16114 -3.82776 3
    endloop
  endfacet
  facet normal 0 0 1
    outer loop
      vertex -2.32228 -7.65552 3
      vertex -1.16114 -3.82776 3
      vertex -1.53073 -3.69552 3
    endloop
  endfacet
  facet normal 0 0 1
    outer loop
      vertex -0.780361 -3.92314 3
      vertex -1.56072 -7.84628 3
      vertex -0.784137 -7.96148 3
    endloop
  endfacet
  facet normal 0 0 1
    outer loop
      vertex -3.06147 -7.39104 3
      vertex -1.53073 -3.69552 3
      vertex -1.88559 -3.52768 3
    endloop
  endfacet
  facet normal 0 0 1
    outer loop
      vertex -3.77117 -7.05537 3
      vertex -1.88559 -3.52768 3
      vertex -2.22228 -3.32588 3
    endloop
  endfacet
  facet normal 0 0 1
    outer loop
      vertex -1.16114 -3.82776 3
      vertex -2.32228 -7.65552 3
      vertex -1.56072 -7.84628 3
    endloop
  endfacet
  facet normal 0 0 1
    outer loop
      vertex -4.44456 -6.65176 3
      vertex -2.22228 -3.32588 3
      vertex -2.53757 -3.09204 3
    endloop
  endfacet
  facet normal 0 0 1
    outer loop
      vertex -5.07515 -6.18408 3
      vertex -2.53757 -3.09204 3
      vertex -2.82843 -2.82843 3
    endloop
  endfacet
  facet normal 0 0 1
    outer loop
      vertex -1.53073 -3.69552 3
      vertex -3.06147 -7.39104 3
      vertex -2.32228 -7.65552 3
    endloop
  endfacet
  facet normal 0 0 1
    outer loop
      vertex -5.65685 -5.65685 3
      vertex -2.82843 -2.82843 3
      vertex -3.09204 -2.53757 3
    endloop
  endfacet
  facet normal 0 0 1
    outer loop
      vertex -6.18408 -5.07515 3
      vertex -3.09204 -2.53757 3
      vertex -3.32588 -2.22228 3
    endloop
  endfacet
  facet normal 0 0 1
    outer loop
      vertex -6.65176 -4.44456 3
      vertex -3.32588 -2.22228 3
      vertex -3.52768 -1.88559 3
    endloop
  endfacet
  facet normal 0 0 1
    outer loop
      vertex -7.05537 -3.77117 3
      vertex -3.52768 -1.88559 3
      vertex -3.69552 -1.53073 3
    endloop
  endfacet
  facet normal 0 0 1
    outer loop
      vertex -1.88559 -3.52768 3
      vertex -3.77117 -7.05537 3
      vertex -3.06147 -7.39104 3
    endloop
  endfacet
  facet normal 0 0 1
    outer loop
      vertex -7.39104 -3.06147 3
      vertex -3.69552 -1.53073 3
      vertex -3.82776 -1.16114 3
    endloop
  endfacet
  facet normal 0 0 1
    outer loop
      vertex -7.65552 -2.32228 3
      vertex -3.82776 -1.16114 3
      vertex -3.92314 -0.780361 3
    endloop
  endfacet
  facet normal 0 0 1
    outer loop
      vertex -7.84628 -1.56072 3
      vertex -3.92314 -0.780361 3
      vertex -3.98074 -0.392068 3
    endloop
  endfacet
  facet normal 0 0 1
    outer loop
      vertex -7.96148 -0.784137 3
      vertex -3.98074 -0.392068 3
      vertex -4 0 3
    endloop
  endfacet
  facet normal 0 0 1
    outer loop
      vertex -3.52768 1.88559 3
      vertex -7.05537 3.77117 3
      vertex -3.69552 1.53073 3
    endloop
  endfacet
  facet normal 0 0 1
    outer loop
      vertex -2.22228 -3.32588 3
      vertex -4.44456 -6.65176 3
      vertex -3.77117 -7.05537 3
    endloop
  endfacet
  facet normal -0 0 1
    outer loop
      vertex -7.39104 3.06147 3
      vertex -3.69552 1.53073 3
      vertex -7.05537 3.77117 3
    endloop
  endfacet
  facet normal 0 0 1
    outer loop
      vertex -2.53757 -3.09204 3
      vertex -5.07515 -6.18408 3
      vertex -4.44456 -6.65176 3
    endloop
  endfacet
  facet normal 0 0 1
    outer loop
      vertex -3.69552 1.53073 3
      vertex -7.39104 3.06147 3
      vertex -3.82776 1.16114 3
    endloop
  endfacet
  facet normal 0 0 1
    outer loop
      vertex -2.82843 -2.82843 3
      vertex -5.65685 -5.65685 3
      vertex -5.07515 -6.18408 3
    endloop
  endfacet
  facet normal -0 0 1
    outer loop
      vertex -7.65552 2.32228 3
      vertex -3.82776 1.16114 3
      vertex -7.39104 3.06147 3
    endloop
  endfacet
  facet normal 0 0 1
    outer loop
      vertex -3.09204 -2.53757 3
      vertex -6.18408 -5.07515 3
      vertex -5.65685 -5.65685 3
    endloop
  endfacet
  facet normal 0 0 1
    outer loop
      vertex -3.82776 1.16114 3
      vertex -7.65552 2.32228 3
      vertex -3.92314 0.780361 3
    endloop
  endfacet
  facet normal 0 0 1
    outer loop
      vertex -3.32588 -2.22228 3
      vertex -6.65176 -4.44456 3
      vertex -6.18408 -5.07515 3
    endloop
  endfacet
  facet normal -0 0 1
    outer loop
      vertex -7.84628 1.56072 3
      vertex -3.92314 0.780361 3
      vertex -7.65552 2.32228 3
    endloop
  endfacet
  facet normal 0 0 1
    outer loop
      vertex -3.52768 -1.88559 3
      vertex -7.05537 -3.77117 3
      vertex -6.65176 -4.44456 3
    endloop
  endfacet
  facet normal 0 0 1
    outer loop
      vertex -3.92314 0.780361 3
      vertex -7.84628 1.56072 3
      vertex -3.98074 0.392068 3
    endloop
  endfacet
  facet normal 0 0 1
    outer loop
      vertex -3.69552 -1.53073 3
      vertex -7.39104 -3.06147 3
      vertex -7.05537 -3.77117 3
    endloop
  endfacet
  facet normal -0 0 1
    outer loop
      vertex -7.96148 0.784137 3
      vertex -3.98074 0.392068 3
      vertex -7.84628 1.56072 3
    endloop
  endfacet
  facet normal 0 0 1
    outer loop
      vertex -3.82776 -1.16114 3
      vertex -7.65552 -2.32228 3
      vertex -7.39104 -3.06147 3
    endloop
  endfacet
  facet normal 0 0 1
    outer loop
      vertex -3.98074 0.392068 3
      vertex -7.96148 0.784137 3
      vertex -4 0 3
    endloop
  endfacet
  facet normal 0 0 1
    outer loop
      vertex -3.92314 -0.780361 3
      vertex -7.84628 -1.56072 3
      vertex -7.65552 -2.32228 3
    endloop
  endfacet
  facet normal 0 0 1
    outer loop
      vertex -8 0 3
      vertex -4 0 3
      vertex -7.96148 0.784137 3
    endloop
  endfacet
  facet normal 0 0 1
    outer loop
      vertex -3.98074 -0.392068 3
      vertex -7.96148 -0.784137 3
      vertex -7.84628 -1.56072 3
    endloop
  endfacet
  facet normal 0 0 1
    outer loop
      vertex -4 0 3
      vertex -8 0 3
      vertex -7.96148 -0.784137 3
    endloop
  endfacet
  facet normal -0.998796 0.0490649 0
    outer loop
      vertex -8 0 0
      vertex -7.96148 0.784137 3
      vertex -7.96148 0.784137 0
    endloop
  endfacet
  facet normal -0.998796 0.0490649 0
    outer loop
      vertex -7.96148 0.784137 3
      vertex -8 0 0
      vertex -8 0 3
    endloop
  endfacet
  facet normal 0.671564 -0.740946 0
    outer loop
      vertex 5.07515 -6.18408 0
      vertex 5.65685 -5.65685 3
      vertex 5.07515 -6.18408 3
    endloop
  endfacet
  facet normal 0.671564 -0.740946 0
    outer loop
      vertex 5.65685 -5.65685 3
      vertex 5.07515 -6.18408 0
      vertex 5.65685 -5.65685 0
    endloop
  endfacet
  facet normal -0.427563 -0.903986 0
    outer loop
      vertex -1.88559 -3.52768 3
      vertex -1.53073 -3.69552 28
      vertex -1.88559 -3.52768 28
    endloop
  endfacet
  facet normal -0.427563 -0.903986 -0
    outer loop
      vertex -1.53073 -3.69552 28
      vertex -1.88559 -3.52768 3
      vertex -1.53073 -3.69552 3
    endloop
  endfacet
  facet normal 0.989176 0.146736 0
    outer loop
      vertex 3.98074 0.392068 28
      vertex 3.92314 0.780361 3
      vertex 3.92314 0.780361 28
    endloop
  endfacet
  facet normal 0.989176 0.146736 0
    outer loop
      vertex 3.92314 0.780361 3
      vertex 3.98074 0.392068 28
      vertex 3.98074 0.392068 3
    endloop
  endfacet
  facet normal 0.998796 0.049065 0
    outer loop
      vertex 4 0 28
      vertex 3.98074 0.392068 3
      vertex 3.98074 0.392068 28
    endloop
  endfacet
  facet normal 0.998796 0.049065 0
    outer loop
      vertex 3.98074 0.392068 3
      vertex 4 0 28
      vertex 4 0 3
    endloop
  endfacet
  facet normal 0.970031 0.24298 0
    outer loop
      vertex 3.92314 0.780361 28
      vertex 3.82776 1.16114 3
      vertex 3.82776 1.16114 28
    endloop
  endfacet
  facet normal 0.970031 0.24298 0
    outer loop
      vertex 3.82776 1.16114 3
      vertex 3.92314 0.780361 28
      vertex 3.92314 0.780361 3
    endloop
  endfacet
  facet normal 0.427563 -0.903986 0
    outer loop
      vertex 1.53073 -3.69552 3
      vertex 1.88559 -3.52768 28
      vertex 1.53073 -3.69552 28
    endloop
  endfacet
  facet normal 0.427563 -0.903986 0
    outer loop
      vertex 1.88559 -3.52768 28
      vertex 1.53073 -3.69552 3
      vertex 1.88559 -3.52768 3
    endloop
  endfacet
  facet normal -0.671545 0.740964 0
    outer loop
      vertex -2.53757 3.09204 3
      vertex -2.82843 2.82843 28
      vertex -2.53757 3.09204 28
    endloop
  endfacet
  facet normal -0.671545 0.740964 0
    outer loop
      vertex -2.82843 2.82843 28
      vertex -2.53757 3.09204 3
      vertex -2.82843 2.82843 3
    endloop
  endfacet
  facet normal -0.970031 -0.24298 0
    outer loop
      vertex -3.82776 -1.16114 3
      vertex -3.92314 -0.780361 28
      vertex -3.92314 -0.780361 3
    endloop
  endfacet
  facet normal -0.970031 -0.24298 0
    outer loop
      vertex -3.92314 -0.780361 28
      vertex -3.82776 -1.16114 3
      vertex -3.82776 -1.16114 28
    endloop
  endfacet
  facet normal 0.427563 0.903986 -0
    outer loop
      vertex 1.88559 3.52768 3
      vertex 1.53073 3.69552 28
      vertex 1.88559 3.52768 28
    endloop
  endfacet
  facet normal 0.427563 0.903986 0
    outer loop
      vertex 1.53073 3.69552 28
      vertex 1.88559 3.52768 3
      vertex 1.53073 3.69552 3
    endloop
  endfacet
  facet normal -0.989176 0.146736 0
    outer loop
      vertex -3.98074 0.392068 3
      vertex -3.92314 0.780361 28
      vertex -3.92314 0.780361 3
    endloop
  endfacet
  facet normal -0.989176 0.146736 0
    outer loop
      vertex -3.92314 0.780361 28
      vertex -3.98074 0.392068 3
      vertex -3.98074 0.392068 28
    endloop
  endfacet
  facet normal -0.146736 -0.989176 0
    outer loop
      vertex -0.780361 -3.92314 3
      vertex -0.392068 -3.98074 28
      vertex -0.780361 -3.92314 28
    endloop
  endfacet
  facet normal -0.146736 -0.989176 -0
    outer loop
      vertex -0.392068 -3.98074 28
      vertex -0.780361 -3.92314 3
      vertex -0.392068 -3.98074 3
    endloop
  endfacet
  facet normal 0.24298 0.970031 -0
    outer loop
      vertex 1.16114 3.82776 3
      vertex 0.780361 3.92314 28
      vertex 1.16114 3.82776 28
    endloop
  endfacet
  facet normal 0.24298 0.970031 0
    outer loop
      vertex 0.780361 3.92314 28
      vertex 1.16114 3.82776 3
      vertex 0.780361 3.92314 3
    endloop
  endfacet
  facet normal -0.740964 0.671545 0
    outer loop
      vertex -3.09204 2.53757 3
      vertex -2.82843 2.82843 28
      vertex -2.82843 2.82843 3
    endloop
  endfacet
  facet normal -0.740964 0.671545 0
    outer loop
      vertex -2.82843 2.82843 28
      vertex -3.09204 2.53757 3
      vertex -3.09204 2.53757 28
    endloop
  endfacet
  facet normal 0.514095 -0.857733 0
    outer loop
      vertex 1.88559 -3.52768 3
      vertex 2.22228 -3.32588 28
      vertex 1.88559 -3.52768 28
    endloop
  endfacet
  facet normal 0.514095 -0.857733 0
    outer loop
      vertex 2.22228 -3.32588 28
      vertex 1.88559 -3.52768 3
      vertex 2.22228 -3.32588 3
    endloop
  endfacet
  facet normal -0.24298 -0.970031 0
    outer loop
      vertex -1.16114 -3.82776 3
      vertex -0.780361 -3.92314 28
      vertex -1.16114 -3.82776 28
    endloop
  endfacet
  facet normal -0.24298 -0.970031 -0
    outer loop
      vertex -0.780361 -3.92314 28
      vertex -1.16114 -3.82776 3
      vertex -0.780361 -3.92314 3
    endloop
  endfacet
  facet normal -0.336887 -0.941545 0
    outer loop
      vertex -1.53073 -3.69552 3
      vertex -1.16114 -3.82776 28
      vertex -1.53073 -3.69552 28
    endloop
  endfacet
  facet normal -0.336887 -0.941545 -0
    outer loop
      vertex -1.16114 -3.82776 28
      vertex -1.53073 -3.69552 3
      vertex -1.16114 -3.82776 3
    endloop
  endfacet
  facet normal -0.336887 0.941545 0
    outer loop
      vertex -1.16114 3.82776 3
      vertex -1.53073 3.69552 28
      vertex -1.16114 3.82776 28
    endloop
  endfacet
  facet normal -0.336887 0.941545 0
    outer loop
      vertex -1.53073 3.69552 28
      vertex -1.16114 3.82776 3
      vertex -1.53073 3.69552 3
    endloop
  endfacet
  facet normal 0.049065 -0.998796 0
    outer loop
      vertex 0 -4 3
      vertex 0.392068 -3.98074 28
      vertex 0 -4 28
    endloop
  endfacet
  facet normal 0.049065 -0.998796 0
    outer loop
      vertex 0.392068 -3.98074 28
      vertex 0 -4 3
      vertex 0.392068 -3.98074 3
    endloop
  endfacet
  facet normal 0.146736 -0.989176 0
    outer loop
      vertex 0.392068 -3.98074 3
      vertex 0.780361 -3.92314 28
      vertex 0.392068 -3.98074 28
    endloop
  endfacet
  facet normal 0.146736 -0.989176 0
    outer loop
      vertex 0.780361 -3.92314 28
      vertex 0.392068 -3.98074 3
      vertex 0.780361 -3.92314 3
    endloop
  endfacet
  facet normal -0.049065 0.998796 0
    outer loop
      vertex 0 4 3
      vertex -0.392068 3.98074 28
      vertex 0 4 28
    endloop
  endfacet
  facet normal -0.049065 0.998796 0
    outer loop
      vertex -0.392068 3.98074 28
      vertex 0 4 3
      vertex -0.392068 3.98074 3
    endloop
  endfacet
  facet normal -0.595708 -0.803201 0
    outer loop
      vertex -2.53757 -3.09204 3
      vertex -2.22228 -3.32588 28
      vertex -2.53757 -3.09204 28
    endloop
  endfacet
  facet normal -0.595708 -0.803201 -0
    outer loop
      vertex -2.22228 -3.32588 28
      vertex -2.53757 -3.09204 3
      vertex -2.22228 -3.32588 3
    endloop
  endfacet
  facet normal -0.903986 -0.427563 0
    outer loop
      vertex -3.52768 -1.88559 3
      vertex -3.69552 -1.53073 28
      vertex -3.69552 -1.53073 3
    endloop
  endfacet
  facet normal -0.903986 -0.427563 0
    outer loop
      vertex -3.69552 -1.53073 28
      vertex -3.52768 -1.88559 3
      vertex -3.52768 -1.88559 28
    endloop
  endfacet
  facet normal -0.146736 0.989176 0
    outer loop
      vertex -0.392068 3.98074 3
      vertex -0.780361 3.92314 28
      vertex -0.392068 3.98074 28
    endloop
  endfacet
  facet normal -0.146736 0.989176 0
    outer loop
      vertex -0.780361 3.92314 28
      vertex -0.392068 3.98074 3
      vertex -0.780361 3.92314 3
    endloop
  endfacet
  facet normal 0.049065 0.998796 -0
    outer loop
      vertex 0.392068 3.98074 3
      vertex 0 4 28
      vertex 0.392068 3.98074 28
    endloop
  endfacet
  facet normal 0.049065 0.998796 0
    outer loop
      vertex 0 4 28
      vertex 0.392068 3.98074 3
      vertex 0 4 3
    endloop
  endfacet
  facet normal 0.514095 0.857733 -0
    outer loop
      vertex 2.22228 3.32588 3
      vertex 1.88559 3.52768 28
      vertex 2.22228 3.32588 28
    endloop
  endfacet
  facet normal 0.514095 0.857733 0
    outer loop
      vertex 1.88559 3.52768 28
      vertex 2.22228 3.32588 3
      vertex 1.88559 3.52768 3
    endloop
  endfacet
  facet normal -0.998796 -0.049065 0
    outer loop
      vertex -3.98074 -0.392068 3
      vertex -4 0 28
      vertex -4 0 3
    endloop
  endfacet
  facet normal -0.998796 -0.049065 0
    outer loop
      vertex -4 0 28
      vertex -3.98074 -0.392068 3
      vertex -3.98074 -0.392068 28
    endloop
  endfacet
  facet normal 0.970031 -0.24298 0
    outer loop
      vertex 3.82776 -1.16114 28
      vertex 3.92314 -0.780361 3
      vertex 3.92314 -0.780361 28
    endloop
  endfacet
  facet normal 0.970031 -0.24298 0
    outer loop
      vertex 3.92314 -0.780361 3
      vertex 3.82776 -1.16114 28
      vertex 3.82776 -1.16114 3
    endloop
  endfacet
  facet normal 0.740964 0.671545 0
    outer loop
      vertex 3.09204 2.53757 28
      vertex 2.82843 2.82843 3
      vertex 2.82843 2.82843 28
    endloop
  endfacet
  facet normal 0.740964 0.671545 0
    outer loop
      vertex 2.82843 2.82843 3
      vertex 3.09204 2.53757 28
      vertex 3.09204 2.53757 3
    endloop
  endfacet
  facet normal 0.595708 0.803201 -0
    outer loop
      vertex 2.53757 3.09204 3
      vertex 2.22228 3.32588 28
      vertex 2.53757 3.09204 28
    endloop
  endfacet
  facet normal 0.595708 0.803201 0
    outer loop
      vertex 2.22228 3.32588 28
      vertex 2.53757 3.09204 3
      vertex 2.22228 3.32588 3
    endloop
  endfacet
  facet normal -0.595708 0.803201 0
    outer loop
      vertex -2.22228 3.32588 3
      vertex -2.53757 3.09204 28
      vertex -2.22228 3.32588 28
    endloop
  endfacet
  facet normal -0.595708 0.803201 0
    outer loop
      vertex -2.53757 3.09204 28
      vertex -2.22228 3.32588 3
      vertex -2.53757 3.09204 3
    endloop
  endfacet
  facet normal 0.803201 0.595708 0
    outer loop
      vertex 3.32588 2.22228 28
      vertex 3.09204 2.53757 3
      vertex 3.09204 2.53757 28
    endloop
  endfacet
  facet normal 0.803201 0.595708 0
    outer loop
      vertex 3.09204 2.53757 3
      vertex 3.32588 2.22228 28
      vertex 3.32588 2.22228 3
    endloop
  endfacet
  facet normal 0.989176 -0.146736 0
    outer loop
      vertex 3.92314 -0.780361 28
      vertex 3.98074 -0.392068 3
      vertex 3.98074 -0.392068 28
    endloop
  endfacet
  facet normal 0.989176 -0.146736 0
    outer loop
      vertex 3.98074 -0.392068 3
      vertex 3.92314 -0.780361 28
      vertex 3.92314 -0.780361 3
    endloop
  endfacet
  facet normal -0.941545 0.336887 0
    outer loop
      vertex -3.82776 1.16114 3
      vertex -3.69552 1.53073 28
      vertex -3.69552 1.53073 3
    endloop
  endfacet
  facet normal -0.941545 0.336887 0
    outer loop
      vertex -3.69552 1.53073 28
      vertex -3.82776 1.16114 3
      vertex -3.82776 1.16114 28
    endloop
  endfacet
  facet normal 0.903986 -0.427563 0
    outer loop
      vertex 3.52768 -1.88559 28
      vertex 3.69552 -1.53073 3
      vertex 3.69552 -1.53073 28
    endloop
  endfacet
  facet normal 0.903986 -0.427563 0
    outer loop
      vertex 3.69552 -1.53073 3
      vertex 3.52768 -1.88559 28
      vertex 3.52768 -1.88559 3
    endloop
  endfacet
  facet normal 0.336887 0.941545 -0
    outer loop
      vertex 1.53073 3.69552 3
      vertex 1.16114 3.82776 28
      vertex 1.53073 3.69552 28
    endloop
  endfacet
  facet normal 0.336887 0.941545 0
    outer loop
      vertex 1.16114 3.82776 28
      vertex 1.53073 3.69552 3
      vertex 1.16114 3.82776 3
    endloop
  endfacet
  facet normal 0.998796 -0.049065 0
    outer loop
      vertex 3.98074 -0.392068 28
      vertex 4 0 3
      vertex 4 0 28
    endloop
  endfacet
  facet normal 0.998796 -0.049065 0
    outer loop
      vertex 4 0 3
      vertex 3.98074 -0.392068 28
      vertex 3.98074 -0.392068 3
    endloop
  endfacet
  facet normal 0.336887 -0.941545 0
    outer loop
      vertex 1.16114 -3.82776 3
      vertex 1.53073 -3.69552 28
      vertex 1.16114 -3.82776 28
    endloop
  endfacet
  facet normal 0.336887 -0.941545 0
    outer loop
      vertex 1.53073 -3.69552 28
      vertex 1.16114 -3.82776 3
      vertex 1.53073 -3.69552 3
    endloop
  endfacet
  facet normal 0.941545 0.336887 0
    outer loop
      vertex 3.82776 1.16114 28
      vertex 3.69552 1.53073 3
      vertex 3.69552 1.53073 28
    endloop
  endfacet
  facet normal 0.941545 0.336887 0
    outer loop
      vertex 3.69552 1.53073 3
      vertex 3.82776 1.16114 28
      vertex 3.82776 1.16114 3
    endloop
  endfacet
  facet normal 0.803201 -0.595708 0
    outer loop
      vertex 3.09204 -2.53757 28
      vertex 3.32588 -2.22228 3
      vertex 3.32588 -2.22228 28
    endloop
  endfacet
  facet normal 0.803201 -0.595708 0
    outer loop
      vertex 3.32588 -2.22228 3
      vertex 3.09204 -2.53757 28
      vertex 3.09204 -2.53757 3
    endloop
  endfacet
  facet normal 0.857733 -0.514095 0
    outer loop
      vertex 3.32588 -2.22228 28
      vertex 3.52768 -1.88559 3
      vertex 3.52768 -1.88559 28
    endloop
  endfacet
  facet normal 0.857733 -0.514095 0
    outer loop
      vertex 3.52768 -1.88559 3
      vertex 3.32588 -2.22228 28
      vertex 3.32588 -2.22228 3
    endloop
  endfacet
  facet normal 0.941545 -0.336887 0
    outer loop
      vertex 3.69552 -1.53073 28
      vertex 3.82776 -1.16114 3
      vertex 3.82776 -1.16114 28
    endloop
  endfacet
  facet normal 0.941545 -0.336887 0
    outer loop
      vertex 3.82776 -1.16114 3
      vertex 3.69552 -1.53073 28
      vertex 3.69552 -1.53073 3
    endloop
  endfacet
  facet normal -0.903986 0.427563 0
    outer loop
      vertex -3.69552 1.53073 3
      vertex -3.52768 1.88559 28
      vertex -3.52768 1.88559 3
    endloop
  endfacet
  facet normal -0.903986 0.427563 0
    outer loop
      vertex -3.52768 1.88559 28
      vertex -3.69552 1.53073 3
      vertex -3.69552 1.53073 28
    endloop
  endfacet
  facet normal -0.24298 0.970031 0
    outer loop
      vertex -0.780361 3.92314 3
      vertex -1.16114 3.82776 28
      vertex -0.780361 3.92314 28
    endloop
  endfacet
  facet normal -0.24298 0.970031 0
    outer loop
      vertex -1.16114 3.82776 28
      vertex -0.780361 3.92314 3
      vertex -1.16114 3.82776 3
    endloop
  endfacet
  facet normal 0.903986 0.427563 0
    outer loop
      vertex 3.69552 1.53073 28
      vertex 3.52768 1.88559 3
      vertex 3.52768 1.88559 28
    endloop
  endfacet
  facet normal 0.903986 0.427563 0
    outer loop
      vertex 3.52768 1.88559 3
      vertex 3.69552 1.53073 28
      vertex 3.69552 1.53073 3
    endloop
  endfacet
  facet normal 0.146736 0.989176 -0
    outer loop
      vertex 0.780361 3.92314 3
      vertex 0.392068 3.98074 28
      vertex 0.780361 3.92314 28
    endloop
  endfacet
  facet normal 0.146736 0.989176 0
    outer loop
      vertex 0.392068 3.98074 28
      vertex 0.780361 3.92314 3
      vertex 0.392068 3.98074 3
    endloop
  endfacet
  facet normal -0.857733 -0.514095 0
    outer loop
      vertex -3.32588 -2.22228 3
      vertex -3.52768 -1.88559 28
      vertex -3.52768 -1.88559 3
    endloop
  endfacet
  facet normal -0.857733 -0.514095 0
    outer loop
      vertex -3.52768 -1.88559 28
      vertex -3.32588 -2.22228 3
      vertex -3.32588 -2.22228 28
    endloop
  endfacet
  facet normal 0.857733 0.514095 0
    outer loop
      vertex 3.52768 1.88559 28
      vertex 3.32588 2.22228 3
      vertex 3.32588 2.22228 28
    endloop
  endfacet
  facet normal 0.857733 0.514095 0
    outer loop
      vertex 3.32588 2.22228 3
      vertex 3.52768 1.88559 28
      vertex 3.52768 1.88559 3
    endloop
  endfacet
  facet normal -0.740964 -0.671545 0
    outer loop
      vertex -2.82843 -2.82843 3
      vertex -3.09204 -2.53757 28
      vertex -3.09204 -2.53757 3
    endloop
  endfacet
  facet normal -0.740964 -0.671545 0
    outer loop
      vertex -3.09204 -2.53757 28
      vertex -2.82843 -2.82843 3
      vertex -2.82843 -2.82843 28
    endloop
  endfacet
  facet normal 0.24298 -0.970031 0
    outer loop
      vertex 0.780361 -3.92314 3
      vertex 1.16114 -3.82776 28
      vertex 0.780361 -3.92314 28
    endloop
  endfacet
  facet normal 0.24298 -0.970031 0
    outer loop
      vertex 1.16114 -3.82776 28
      vertex 0.780361 -3.92314 3
      vertex 1.16114 -3.82776 3
    endloop
  endfacet
  facet normal -0.514095 0.857733 0
    outer loop
      vertex -1.88559 3.52768 3
      vertex -2.22228 3.32588 28
      vertex -1.88559 3.52768 28
    endloop
  endfacet
  facet normal -0.514095 0.857733 0
    outer loop
      vertex -2.22228 3.32588 28
      vertex -1.88559 3.52768 3
      vertex -2.22228 3.32588 3
    endloop
  endfacet
  facet normal -0.427563 0.903986 0
    outer loop
      vertex -1.53073 3.69552 3
      vertex -1.88559 3.52768 28
      vertex -1.53073 3.69552 28
    endloop
  endfacet
  facet normal -0.427563 0.903986 0
    outer loop
      vertex -1.88559 3.52768 28
      vertex -1.53073 3.69552 3
      vertex -1.88559 3.52768 3
    endloop
  endfacet
  facet normal -0.941545 -0.336887 0
    outer loop
      vertex -3.69552 -1.53073 3
      vertex -3.82776 -1.16114 28
      vertex -3.82776 -1.16114 3
    endloop
  endfacet
  facet normal -0.941545 -0.336887 0
    outer loop
      vertex -3.82776 -1.16114 28
      vertex -3.69552 -1.53073 3
      vertex -3.69552 -1.53073 28
    endloop
  endfacet
  facet normal -0.514095 -0.857733 0
    outer loop
      vertex -2.22228 -3.32588 3
      vertex -1.88559 -3.52768 28
      vertex -2.22228 -3.32588 28
    endloop
  endfacet
  facet normal -0.514095 -0.857733 -0
    outer loop
      vertex -1.88559 -3.52768 28
      vertex -2.22228 -3.32588 3
      vertex -1.88559 -3.52768 3
    endloop
  endfacet
  facet normal 0.671545 0.740964 -0
    outer loop
      vertex 2.82843 2.82843 3
      vertex 2.53757 3.09204 28
      vertex 2.82843 2.82843 28
    endloop
  endfacet
  facet normal 0.671545 0.740964 0
    outer loop
      vertex 2.53757 3.09204 28
      vertex 2.82843 2.82843 3
      vertex 2.53757 3.09204 3
    endloop
  endfacet
  facet normal -0.970031 0.24298 0
    outer loop
      vertex -3.92314 0.780361 3
      vertex -3.82776 1.16114 28
      vertex -3.82776 1.16114 3
    endloop
  endfacet
  facet normal -0.970031 0.24298 0
    outer loop
      vertex -3.82776 1.16114 28
      vertex -3.92314 0.780361 3
      vertex -3.92314 0.780361 28
    endloop
  endfacet
  facet normal -0.803201 -0.595708 0
    outer loop
      vertex -3.09204 -2.53757 3
      vertex -3.32588 -2.22228 28
      vertex -3.32588 -2.22228 3
    endloop
  endfacet
  facet normal -0.803201 -0.595708 0
    outer loop
      vertex -3.32588 -2.22228 28
      vertex -3.09204 -2.53757 3
      vertex -3.09204 -2.53757 28
    endloop
  endfacet
  facet normal -0.989176 -0.146736 0
    outer loop
      vertex -3.92314 -0.780361 3
      vertex -3.98074 -0.392068 28
      vertex -3.98074 -0.392068 3
    endloop
  endfacet
  facet normal -0.989176 -0.146736 0
    outer loop
      vertex -3.98074 -0.392068 28
      vertex -3.92314 -0.780361 3
      vertex -3.92314 -0.780361 28
    endloop
  endfacet
  facet normal 0.595708 -0.803201 0
    outer loop
      vertex 2.22228 -3.32588 3
      vertex 2.53757 -3.09204 28
      vertex 2.22228 -3.32588 28
    endloop
  endfacet
  facet normal 0.595708 -0.803201 0
    outer loop
      vertex 2.53757 -3.09204 28
      vertex 2.22228 -3.32588 3
      vertex 2.53757 -3.09204 3
    endloop
  endfacet
  facet normal -0.671545 -0.740964 0
    outer loop
      vertex -2.82843 -2.82843 3
      vertex -2.53757 -3.09204 28
      vertex -2.82843 -2.82843 28
    endloop
  endfacet
  facet normal -0.671545 -0.740964 -0
    outer loop
      vertex -2.53757 -3.09204 28
      vertex -2.82843 -2.82843 3
      vertex -2.53757 -3.09204 3
    endloop
  endfacet
  facet normal -0.803201 0.595708 0
    outer loop
      vertex -3.32588 2.22228 3
      vertex -3.09204 2.53757 28
      vertex -3.09204 2.53757 3
    endloop
  endfacet
  facet normal -0.803201 0.595708 0
    outer loop
      vertex -3.09204 2.53757 28
      vertex -3.32588 2.22228 3
      vertex -3.32588 2.22228 28
    endloop
  endfacet
  facet normal -0.857733 0.514095 0
    outer loop
      vertex -3.52768 1.88559 3
      vertex -3.32588 2.22228 28
      vertex -3.32588 2.22228 3
    endloop
  endfacet
  facet normal -0.857733 0.514095 0
    outer loop
      vertex -3.32588 2.22228 28
      vertex -3.52768 1.88559 3
      vertex -3.52768 1.88559 28
    endloop
  endfacet
  facet normal 0 0 1
    outer loop
      vertex 3.98074 0.392068 28
      vertex 3.98074 -0.392068 28
      vertex 4 0 28
    endloop
  endfacet
  facet normal 0 0 1
    outer loop
      vertex 3.92314 0.780361 28
      vertex 3.98074 -0.392068 28
      vertex 3.98074 0.392068 28
    endloop
  endfacet
  facet normal 0 0 1
    outer loop
      vertex 3.92314 0.780361 28
      vertex 3.92314 -0.780361 28
      vertex 3.98074 -0.392068 28
    endloop
  endfacet
  facet normal 0 0 1
    outer loop
      vertex 3.82776 1.16114 28
      vertex 3.92314 -0.780361 28
      vertex 3.92314 0.780361 28
    endloop
  endfacet
  facet normal 0 0 1
    outer loop
      vertex 3.82776 1.16114 28
      vertex 3.82776 -1.16114 28
      vertex 3.92314 -0.780361 28
    endloop
  endfacet
  facet normal 0 0 1
    outer loop
      vertex 3.69552 1.53073 28
      vertex 3.82776 -1.16114 28
      vertex 3.82776 1.16114 28
    endloop
  endfacet
  facet normal 0 0 1
    outer loop
      vertex 3.69552 1.53073 28
      vertex 3.69552 -1.53073 28
      vertex 3.82776 -1.16114 28
    endloop
  endfacet
  facet normal 0 0 1
    outer loop
      vertex 3.52768 1.88559 28
      vertex 3.69552 -1.53073 28
      vertex 3.69552 1.53073 28
    endloop
  endfacet
  facet normal 0 0 1
    outer loop
      vertex 3.52768 1.88559 28
      vertex 3.52768 -1.88559 28
      vertex 3.69552 -1.53073 28
    endloop
  endfacet
  facet normal 0 0 1
    outer loop
      vertex 3.32588 2.22228 28
      vertex 3.52768 -1.88559 28
      vertex 3.52768 1.88559 28
    endloop
  endfacet
  facet normal 0 0 1
    outer loop
      vertex 3.32588 2.22228 28
      vertex 3.32588 -2.22228 28
      vertex 3.52768 -1.88559 28
    endloop
  endfacet
  facet normal 0 0 1
    outer loop
      vertex 3.09204 2.53757 28
      vertex 3.32588 -2.22228 28
      vertex 3.32588 2.22228 28
    endloop
  endfacet
  facet normal 0 0 1
    outer loop
      vertex 3.09204 2.53757 28
      vertex 3.09204 -2.53757 28
      vertex 3.32588 -2.22228 28
    endloop
  endfacet
  facet normal 0 0 1
    outer loop
      vertex 2.82843 2.82843 28
      vertex 3.09204 -2.53757 28
      vertex 3.09204 2.53757 28
    endloop
  endfacet
  facet normal 0 0 1
    outer loop
      vertex 2.82843 2.82843 28
      vertex 2.82843 -2.82843 28
      vertex 3.09204 -2.53757 28
    endloop
  endfacet
  facet normal 0 0 1
    outer loop
      vertex 2.53757 3.09204 28
      vertex 2.82843 -2.82843 28
      vertex 2.82843 2.82843 28
    endloop
  endfacet
  facet normal 0 0 1
    outer loop
      vertex 2.53757 3.09204 28
      vertex 2.53757 -3.09204 28
      vertex 2.82843 -2.82843 28
    endloop
  endfacet
  facet normal 0 0 1
    outer loop
      vertex 2.22228 3.32588 28
      vertex 2.53757 -3.09204 28
      vertex 2.53757 3.09204 28
    endloop
  endfacet
  facet normal 0 0 1
    outer loop
      vertex 2.22228 3.32588 28
      vertex 2.22228 -3.32588 28
      vertex 2.53757 -3.09204 28
    endloop
  endfacet
  facet normal 0 0 1
    outer loop
      vertex 1.88559 3.52768 28
      vertex 2.22228 -3.32588 28
      vertex 2.22228 3.32588 28
    endloop
  endfacet
  facet normal 0 0 1
    outer loop
      vertex 1.88559 3.52768 28
      vertex 1.88559 -3.52768 28
      vertex 2.22228 -3.32588 28
    endloop
  endfacet
  facet normal 0 0 1
    outer loop
      vertex 1.53073 3.69552 28
      vertex 1.88559 -3.52768 28
      vertex 1.88559 3.52768 28
    endloop
  endfacet
  facet normal 0 0 1
    outer loop
      vertex 1.53073 3.69552 28
      vertex 1.53073 -3.69552 28
      vertex 1.88559 -3.52768 28
    endloop
  endfacet
  facet normal 0 0 1
    outer loop
      vertex 1.16114 3.82776 28
      vertex 1.53073 -3.69552 28
      vertex 1.53073 3.69552 28
    endloop
  endfacet
  facet normal 0 0 1
    outer loop
      vertex 1.16114 3.82776 28
      vertex 1.16114 -3.82776 28
      vertex 1.53073 -3.69552 28
    endloop
  endfacet
  facet normal 0 0 1
    outer loop
      vertex 0.780361 3.92314 28
      vertex 1.16114 -3.82776 28
      vertex 1.16114 3.82776 28
    endloop
  endfacet
  facet normal 0 0 1
    outer loop
      vertex 0.780361 3.92314 28
      vertex 0.780361 -3.92314 28
      vertex 1.16114 -3.82776 28
    endloop
  endfacet
  facet normal 0 0 1
    outer loop
      vertex 0.392068 3.98074 28
      vertex 0.780361 -3.92314 28
      vertex 0.780361 3.92314 28
    endloop
  endfacet
  facet normal 0 0 1
    outer loop
      vertex 0.392068 3.98074 28
      vertex 0.392068 -3.98074 28
      vertex 0.780361 -3.92314 28
    endloop
  endfacet
  facet normal 0 0 1
    outer loop
      vertex 0 4 28
      vertex 0.392068 -3.98074 28
      vertex 0.392068 3.98074 28
    endloop
  endfacet
  facet normal 0 0 1
    outer loop
      vertex 0 4 28
      vertex 0 -4 28
      vertex 0.392068 -3.98074 28
    endloop
  endfacet
  facet normal -0 0 1
    outer loop
      vertex -0.392068 3.98074 28
      vertex 0 -4 28
      vertex 0 4 28
    endloop
  endfacet
  facet normal 0 0 1
    outer loop
      vertex -0.392068 3.98074 28
      vertex -0.392068 -3.98074 28
      vertex 0 -4 28
    endloop
  endfacet
  facet normal -0 0 1
    outer loop
      vertex -0.780361 3.92314 28
      vertex -0.392068 -3.98074 28
      vertex -0.392068 3.98074 28
    endloop
  endfacet
  facet normal 0 0 1
    outer loop
      vertex -0.780361 3.92314 28
      vertex -0.780361 -3.92314 28
      vertex -0.392068 -3.98074 28
    endloop
  endfacet
  facet normal -0 0 1
    outer loop
      vertex -1.16114 3.82776 28
      vertex -0.780361 -3.92314 28
      vertex -0.780361 3.92314 28
    endloop
  endfacet
  facet normal 0 0 1
    outer loop
      vertex -1.16114 3.82776 28
      vertex -1.16114 -3.82776 28
      vertex -0.780361 -3.92314 28
    endloop
  endfacet
  facet normal -0 0 1
    outer loop
      vertex -1.53073 3.69552 28
      vertex -1.16114 -3.82776 28
      vertex -1.16114 3.82776 28
    endloop
  endfacet
  facet normal 0 0 1
    outer loop
      vertex -1.53073 3.69552 28
      vertex -1.53073 -3.69552 28
      vertex -1.16114 -3.82776 28
    endloop
  endfacet
  facet normal -0 0 1
    outer loop
      vertex -1.88559 3.52768 28
      vertex -1.53073 -3.69552 28
      vertex -1.53073 3.69552 28
    endloop
  endfacet
  facet normal 0 0 1
    outer loop
      vertex -1.88559 3.52768 28
      vertex -1.88559 -3.52768 28
      vertex -1.53073 -3.69552 28
    endloop
  endfacet
  facet normal -0 0 1
    outer loop
      vertex -2.22228 3.32588 28
      vertex -1.88559 -3.52768 28
      vertex -1.88559 3.52768 28
    endloop
  endfacet
  facet normal 0 0 1
    outer loop
      vertex -2.22228 3.32588 28
      vertex -2.22228 -3.32588 28
      vertex -1.88559 -3.52768 28
    endloop
  endfacet
  facet normal -0 0 1
    outer loop
      vertex -2.53757 3.09204 28
      vertex -2.22228 -3.32588 28
      vertex -2.22228 3.32588 28
    endloop
  endfacet
  facet normal 0 0 1
    outer loop
      vertex -2.53757 3.09204 28
      vertex -2.53757 -3.09204 28
      vertex -2.22228 -3.32588 28
    endloop
  endfacet
  facet normal -0 0 1
    outer loop
      vertex -2.82843 2.82843 28
      vertex -2.53757 -3.09204 28
      vertex -2.53757 3.09204 28
    endloop
  endfacet
  facet normal 0 0 1
    outer loop
      vertex -2.82843 2.82843 28
      vertex -2.82843 -2.82843 28
      vertex -2.53757 -3.09204 28
    endloop
  endfacet
  facet normal -0 0 1
    outer loop
      vertex -3.09204 2.53757 28
      vertex -2.82843 -2.82843 28
      vertex -2.82843 2.82843 28
    endloop
  endfacet
  facet normal 0 0 1
    outer loop
      vertex -3.09204 2.53757 28
      vertex -3.09204 -2.53757 28
      vertex -2.82843 -2.82843 28
    endloop
  endfacet
  facet normal -0 0 1
    outer loop
      vertex -3.32588 2.22228 28
      vertex -3.09204 -2.53757 28
      vertex -3.09204 2.53757 28
    endloop
  endfacet
  facet normal 0 0 1
    outer loop
      vertex -3.32588 2.22228 28
      vertex -3.32588 -2.22228 28
      vertex -3.09204 -2.53757 28
    endloop
  endfacet
  facet normal -0 0 1
    outer loop
      vertex -3.52768 1.88559 28
      vertex -3.32588 -2.22228 28
      vertex -3.32588 2.22228 28
    endloop
  endfacet
  facet normal 0 0 1
    outer loop
      vertex -3.52768 1.88559 28
      vertex -3.52768 -1.88559 28
      vertex -3.32588 -2.22228 28
    endloop
  endfacet
  facet normal -0 0 1
    outer loop
      vertex -3.69552 1.53073 28
      vertex -3.52768 -1.88559 28
      vertex -3.52768 1.88559 28
    endloop
  endfacet
  facet normal 0 0 1
    outer loop
      vertex -3.69552 1.53073 28
      vertex -3.69552 -1.53073 28
      vertex -3.52768 -1.88559 28
    endloop
  endfacet
  facet normal -0 0 1
    outer loop
      vertex -3.82776 1.16114 28
      vertex -3.69552 -1.53073 28
      vertex -3.69552 1.53073 28
    endloop
  endfacet
  facet normal 0 0 1
    outer loop
      vertex -3.82776 1.16114 28
      vertex -3.82776 -1.16114 28
      vertex -3.69552 -1.53073 28
    endloop
  endfacet
  facet normal -0 0 1
    outer loop
      vertex -3.92314 0.780361 28
      vertex -3.82776 -1.16114 28
      vertex -3.82776 1.16114 28
    endloop
  endfacet
  facet normal 0 0 1
    outer loop
      vertex -3.92314 0.780361 28
      vertex -3.92314 -0.780361 28
      vertex -3.82776 -1.16114 28
    endloop
  endfacet
  facet normal -0 0 1
    outer loop
      vertex -3.98074 0.392068 28
      vertex -3.92314 -0.780361 28
      vertex -3.92314 0.780361 28
    endloop
  endfacet
  facet normal 0 0 1
    outer loop
      vertex -3.98074 0.392068 28
      vertex -3.98074 -0.392068 28
      vertex -3.92314 -0.780361 28
    endloop
  endfacet
  facet normal 0 -0 1
    outer loop
      vertex -3.98074 -0.392068 28
      vertex -3.98074 0.392068 28
      vertex -4 0 28
    endloop
  endfacet
  facet normal -0.049065 -0.998796 0
    outer loop
      vertex -0.392068 -3.98074 3
      vertex 0 -4 28
      vertex -0.392068 -3.98074 28
    endloop
  endfacet
  facet normal -0.049065 -0.998796 -0
    outer loop
      vertex 0 -4 28
      vertex -0.392068 -3.98074 3
      vertex 0 -4 3
    endloop
  endfacet
  facet normal -0.998796 0.049065 0
    outer loop
      vertex -4 0 3
      vertex -3.98074 0.392068 28
      vertex -3.98074 0.392068 3
    endloop
  endfacet
  facet normal -0.998796 0.049065 0
    outer loop
      vertex -3.98074 0.392068 28
      vertex -4 0 3
      vertex -4 0 28
    endloop
  endfacet
  facet normal 0.740964 -0.671545 0
    outer loop
      vertex 2.82843 -2.82843 28
      vertex 3.09204 -2.53757 3
      vertex 3.09204 -2.53757 28
    endloop
  endfacet
  facet normal 0.740964 -0.671545 0
    outer loop
      vertex 3.09204 -2.53757 3
      vertex 2.82843 -2.82843 28
      vertex 2.82843 -2.82843 3
    endloop
  endfacet
  facet normal 0.671545 -0.740964 0
    outer loop
      vertex 2.53757 -3.09204 3
      vertex 2.82843 -2.82843 28
      vertex 2.53757 -3.09204 28
    endloop
  endfacet
  facet normal 0.671545 -0.740964 0
    outer loop
      vertex 2.82843 -2.82843 28
      vertex 2.53757 -3.09204 3
      vertex 2.82843 -2.82843 3
    endloop
  endfacet
endsolid OpenSCAD_Model
